<svg xmlns="http://www.w3.org/2000/svg" width="39" height="44" fill="#4f4f4f" xmlns:v="https://vecta.io/nano"><path d="M36.822 16.136h-6.234c-.865 0-1.722-.17-2.521-.501a6.59 6.59 0 0 1-3.566-3.565 6.59 6.59 0 0 1-.502-2.521V3.361c0-.468.186-.918.517-1.249s.781-.517 1.249-.517.918.186 1.249.517.517.781.517 1.249v6.186a3.06 3.06 0 0 0 3.056 3.055h6.234c.468 0 .918.186 1.249.517s.517.781.517 1.249-.186.918-.517 1.249-.781.517-1.249.517z"/><path d="M32 44H6.588a6.59 6.59 0 0 1-4.658-1.93A6.59 6.59 0 0 1 0 37.412V6.588A6.59 6.59 0 0 1 6.588 0h18.301c.525 0 1.043.111 1.522.326a3.72 3.72 0 0 1 1.255.921l9.983 11.227a3.71 3.71 0 0 1 .939 2.469v22.469A6.59 6.59 0 0 1 32 44zM6.588 3.533a3.06 3.06 0 0 0-3.055 3.055v30.824a3.06 3.06 0 0 0 3.055 3.055H32a3.06 3.06 0 0 0 3.055-3.055V14.943c0-.045-.016-.088-.046-.121L25.026 3.594c-.017-.019-.038-.035-.062-.045s-.049-.016-.075-.016H6.588zm14.894 22.895c-.423 0-.832-.152-1.152-.428s-.531-.657-.594-1.076.026-.845.251-1.203.571-.624.975-.748l2.85-.88-.37-2.7a1.77 1.77 0 0 1 .341-1.31c.14-.185.316-.341.516-.458a1.78 1.78 0 0 1 .652-.226 1.76 1.76 0 0 1 .689.042 1.77 1.77 0 0 1 .62.303 1.78 1.78 0 0 1 .457.517 1.76 1.76 0 0 1 .224.653l.573 4.186c.057.415-.036.836-.261 1.189s-.568.615-.968.738l-4.282 1.323c-.169.052-.345.079-.522.078z"/><path d="M19.294 37.351c-1.507 0-2.991-.367-4.325-1.07s-2.475-1.719-3.327-2.963-1.388-2.675-1.562-4.172.019-3.014.563-4.419 1.422-2.657 2.559-3.647 2.497-1.688 3.964-2.033 2.996-.329 4.455.049 2.804 1.106 3.918 2.121c.172.156.311.345.409.555s.155.437.166.669-.024.463-.103.682-.2.419-.356.59a1.77 1.77 0 0 1-1.224.575c-.468.022-.926-.143-1.272-.458a5.73 5.73 0 0 0-3.866-1.497 5.75 5.75 0 0 0-5.743 5.743 5.75 5.75 0 0 0 5.743 5.743 5.75 5.75 0 0 0 5.743-5.743c0-.468.186-.918.517-1.249s.781-.517 1.249-.517.918.186 1.249.517.517.781.517 1.249a9.27 9.27 0 0 1-2.715 6.561 9.27 9.27 0 0 1-6.561 2.715z"/></svg>