<svg width="24" height="24" viewBox="0 0 24 24" fill="none" xmlns="http://www.w3.org/2000/svg">
<rect width="24" height="24" fill="white"/>
<path d="M17.625 22.875H6.375C3.525 22.875 1.125 20.55 1.125 17.625V6.375C1.125 3.525 3.525 1.125 6.375 1.125H17.625C20.55 1.125 22.875 3.525 22.875 6.375V17.625C22.875 20.55 20.55 22.875 17.625 22.875Z" fill="white"/>
<path d="M17.4 22.875H6.59995C3.59995 22.875 1.19995 20.4 1.19995 17.475V6.59995C1.19995 3.59995 3.67495 1.19995 6.59995 1.19995H16.8C17.4 1.19995 17.9249 1.64995 17.9249 2.32495C17.9249 2.99995 17.475 3.44995 16.8 3.44995H6.59995C4.79995 3.44995 3.37495 4.94995 3.37495 6.67495V17.5499C3.37495 19.35 4.87495 20.85 6.59995 20.85H17.475C19.275 20.85 20.775 19.35 20.775 17.5499V9.07495C20.775 8.47495 21.225 7.94995 21.825 7.94995C22.425 7.94995 22.95 8.39995 22.95 9.07495V17.475C22.875 20.4 20.4 22.875 17.4 22.875Z" fill="#3464e0"/>
<path d="M10.95 13.5L6.97499 10.125L6.89999 10.05C6.44999 9.74996 5.77499 9.82496 5.39999 10.275C5.02499 10.725 5.02499 11.475 5.54999 11.85L10.8 16.275C11.175 16.65 11.85 16.575 12.15 16.2L23.25 3.52496L23.325 3.37496C23.625 2.92496 23.55 2.24996 23.1 1.87496C22.65 1.49996 21.9 1.49996 21.525 2.02496L11.475 13.5C11.4 13.65 11.175 13.65 10.95 13.5Z" fill="#3464e0"/>
</svg>
