<svg xmlns="http://www.w3.org/2000/svg" width="46" height="44" fill="#4f4f4f" xmlns:v="https://vecta.io/nano"><path d="M22.638 34c-.8 0-1.6-.2-2.3-.6l-13.4-6.7c-1.8-.9-2.9-2.7-2.9-4.7v-.7c.1-1 1.1-1.8 2.1-1.6 1 .1 1.8 1.1 1.6 2.1v.2c0 .6.3 1.1.8 1.3l13.4 6.7c.4.2.9.2 1.3 0l13.4-6.7c.5-.2.8-.7.8-1.3v-.2c-.2-1 .6-2 1.6-2.2 1-.1 2 .6 2.2 1.6v.7c0 2-1.1 3.8-2.9 4.7l-13.4 6.7c-.7.4-1.5.6-2.3.6v.1zm0 9.7c-.8 0-1.6-.2-2.3-.6l-13.4-6.7c-1.8-.9-2.9-2.7-2.9-4.7V31c.1-1 1.1-1.8 2.1-1.6 1 .1 1.8 1.1 1.6 2.1v.2c0 .6.3 1.1.8 1.3l13.4 6.7c.4.2.9.2 1.3 0l13.4-6.7c.5-.2.8-.7.8-1.3v-.2c-.2-1 .6-2 1.6-2.2s2 .6 2.2 1.6v.7c0 2-1.1 3.8-2.9 4.7l-13.4 6.7c-.7.4-1.5.6-2.3.6v.1zm0-19.5c-.8 0-1.6-.2-2.3-.6l-13.4-6.7c-1.8-.9-2.9-2.7-2.9-4.7s1.1-3.8 2.9-4.7l13.3-6.6c1.4-.7 3.2-.7 4.7 0l13.4 6.7c1.8.9 2.9 2.7 2.9 4.7s-1.1 3.8-2.9 4.7l-13.4 6.7c-.7.4-1.5.6-2.3.6v-.1zm0-20.1c-.2 0-.4 0-.6.2L8.637 11c-.5.2-.8.7-.8 1.3s.3 1.1.8 1.3l13.4 6.7c.4.2.9.2 1.3 0l13.4-6.7c.5-.2.8-.7.8-1.3s-.3-1.1-.8-1.3l-13.4-6.7c-.2-.1-.4-.2-.6-.2h-.1z"/></svg>