<svg width="36" height="43" viewBox="0 0 36 43" fill="none" xmlns="http://www.w3.org/2000/svg">
<path d="M24.8994 1.33281C24.5119 0.876739 24.0216 0.519166 23.4689 0.289499C22.9163 0.0598322 22.317 -0.0353687 21.7204 0.0117255H3.46789C1.46525 0.0117255 0.666992 0.800644 0.666992 2.81262V39.2242C0.666992 41.2315 1.45591 42.0251 3.46789 42.0251H32.8773C34.8799 42.0251 35.6782 41.2409 35.6782 39.2242V13.9788C35.725 13.3827 35.6302 12.7839 35.4014 12.2314C35.1726 11.6789 34.8164 11.1883 34.3617 10.7998L24.8994 1.33281ZM33.246 38.8368C33.246 39.3736 33.036 39.5837 32.4991 39.5837H3.86468C3.32784 39.5837 3.11777 39.3736 3.11777 38.8368V29.8039H33.246V38.8368ZM6.63757 27.5025V19.5106C7.46155 19.3922 8.29328 19.3361 9.12569 19.3426C10.6709 19.3426 11.6698 19.6226 12.4541 20.2108C12.9165 20.5708 13.2838 21.0385 13.5239 21.5731C13.7639 22.1078 13.8694 22.693 13.8312 23.2778C13.8674 23.8935 13.7646 24.5095 13.5302 25.0801C13.2958 25.6506 12.936 26.1611 12.4774 26.5735C11.6232 27.2878 10.3207 27.6239 8.7429 27.6239C8.03298 27.6311 7.32337 27.5906 6.61889 27.5025H6.63757ZM14.6621 23.5299C14.6621 21.0931 16.2213 19.2679 18.6207 19.2679C21.1228 19.2679 22.486 21.1351 22.486 23.3852C22.486 26.0554 20.8661 27.6705 18.49 27.6705C16.1139 27.6705 14.6434 25.85 14.6434 23.5299H14.6621ZM27.859 26.1394C28.3808 26.1382 28.8986 26.0482 29.3901 25.8733L29.6702 27.3111C29.0039 27.5678 28.2925 27.6869 27.5789 27.6612C24.778 27.6612 23.3169 25.9106 23.3169 23.5906C23.3169 20.7897 25.2962 19.2679 27.761 19.2679C28.4469 19.2443 29.1299 19.3685 29.7636 19.632L29.3901 21.0931C28.9008 20.8888 28.3752 20.7856 27.845 20.7897C26.3839 20.7897 25.2495 21.672 25.2495 23.4832C25.2308 25.1124 26.1971 26.1394 27.8403 26.1394H27.859ZM33.2647 17.1392H3.13645V3.20008C3.13645 2.66791 3.34651 2.45784 3.88335 2.45784H22.486C22.752 2.45784 22.8547 2.56054 22.8547 2.83129V10.0716C22.8547 12.0742 23.6437 12.8725 25.6556 12.8725H32.8959C33.162 12.8725 33.2694 12.9799 33.2694 13.2459L33.2647 17.1392Z" fill="#128266"/>
<path d="M20.5158 23.4454C20.5158 21.9842 19.8156 20.7285 18.5459 20.7285C17.2761 20.7285 16.5806 21.9142 16.5806 23.4967C16.5806 25.0792 17.3275 26.2136 18.5599 26.2136C19.7923 26.2136 20.5158 25.0279 20.5158 23.4454Z" fill="#128266"/>
<path d="M9.31216 20.752C9.0317 20.7454 8.75141 20.7705 8.47656 20.8267V26.1484C8.68957 26.1817 8.90532 26.1942 9.12076 26.1857C10.7826 26.1857 11.8703 25.2801 11.8703 23.3382C11.8703 21.6483 10.8807 20.752 9.31216 20.752Z" fill="#128266"/>
</svg>
