<svg width="42" height="45" viewBox="0 0 42 45" fill="none" xmlns="http://www.w3.org/2000/svg">
<path d="M41.05 4.21L40.71 0L38.36 1.79C36.1464 3.37377 33.5967 4.42445 30.91 4.86C30.47 4.86 29.8 4.96 28.91 5.01C23.49 5.36 10.81 6.16 4.74999 14.15C1.54999 18.35 0.649994 23.92 2.07999 30.68C2.15355 31.0292 2.34242 31.3435 2.61623 31.5723C2.89004 31.8011 3.23287 31.9312 3.58956 31.9416C3.94625 31.952 4.29607 31.8421 4.58273 31.6296C4.86939 31.4171 5.07624 31.1143 5.16999 30.77C5.40033 30.1384 5.68124 29.5264 6.00999 28.94C7.27999 26.61 10.37 22.65 17.1 20.66C22.8484 19.1046 28.2319 16.4265 32.94 12.78C33.1391 12.6625 33.3105 12.5035 33.4427 12.3139C33.5748 12.1242 33.6646 11.9083 33.7059 11.6809C33.7471 11.4534 33.7389 11.2198 33.6818 10.9958C33.6247 10.7718 33.5201 10.5627 33.375 10.3828C33.2299 10.2028 33.0477 10.0563 32.8409 9.953C32.6341 9.84974 32.4074 9.79223 32.1764 9.78438C31.9454 9.77653 31.7154 9.81851 31.502 9.90749C31.2887 9.99646 31.097 10.1303 30.94 10.3C26.5645 13.6666 21.5697 16.1402 16.24 17.58C10.03 19.41 6.58999 22.5 4.70999 24.97C4.57311 21.7967 5.50637 18.6693 7.35999 16.09C12.53 9.27 24.18 8.5 29.16 8.21C30.1 8.15 30.84 8.11 31.33 8.03C33.6623 7.69065 35.9147 6.93533 37.98 5.8C38.58 12.8 38.71 21.23 28.47 29.08C25.4088 31.5245 21.7771 33.1518 17.9152 33.8094C14.0534 34.4671 10.0877 34.1335 6.38999 32.84L5.62999 32.5L4.92999 32.93C-0.660007 36.37 -0.0700063 43.55 0.109994 44.93H3.29999C3.19337 43.7892 3.19337 42.6408 3.29999 41.5C3.44223 39.3967 4.40895 37.4345 5.98999 36.04C10.1171 37.3463 14.5018 37.62 18.7593 36.8372C23.0169 36.0544 27.0174 34.2389 30.41 31.55C42.71 22.21 41.71 11.81 41.05 4.21Z" fill="#15844E"/>
</svg>
