<svg xmlns="http://www.w3.org/2000/svg" width="148" height="136" fill="none" xmlns:v="https://vecta.io/nano"><g clip-path="url(#A)"><g fill="#02b472"><path d="M55.62 109.318V97.52c-.205.248-.48.429-.788.521a2.86 2.86 0 0 1-1.005.191v-1.64a2.95 2.95 0 0 0 1.271-.572 3.14 3.14 0 0 0 .966-1.271h1.716v14.545l-2.161.025zm10.108-.864a3.55 3.55 0 0 1-1.152.771c-.431.179-.893.271-1.359.271s-.928-.092-1.359-.271a3.56 3.56 0 0 1-1.152-.771 5.16 5.16 0 0 1-.775-3.064v-6.942c-.073-1.024.205-2.042.788-2.886a3.75 3.75 0 0 1 4.997 0c.589.842.868 1.862.788 2.886v6.942c.073 1.078-.198 2.151-.776 3.064zm-2.543-.865c.16.007.32-.029.462-.102s.264-.183.352-.317a3.42 3.42 0 0 0 .28-1.729v-7.082c0-1.081-.254-1.678-.75-1.818h-.47a.88.88 0 0 0-.636.318 2.54 2.54 0 0 0-.293 1.513v7.095a3.57 3.57 0 0 0 .267 1.742.88.88 0 0 0 .35.297.89.89 0 0 0 .451.084h-.013zm10.883.865c-.328.33-.719.591-1.149.77a3.53 3.53 0 0 1-1.356.27c-.465 0-.926-.092-1.356-.27a3.54 3.54 0 0 1-1.149-.77c-.577-.913-.849-1.987-.776-3.064v-6.942a4.44 4.44 0 0 1 .788-2.886 3.04 3.04 0 0 1 2.543-.953c.468-.046.941.016 1.382.181s.838.429 1.16.772c.583.845.861 1.863.788 2.886v6.942a5.09 5.09 0 0 1-.877 3.064zm-2.543-.865c.158.006.316-.03.456-.104a.91.91 0 0 0 .345-.315c.248-.541.349-1.138.292-1.73v-7.081c0-1.081-.267-1.678-.763-1.818h-.47c-.121.004-.239.035-.347.09s-.202.133-.276.228a2.44 2.44 0 0 0-.305 1.513v7.094c-.058.594.034 1.192.267 1.742a.9.9 0 0 0 .362.302c.145.067.306.094.465.079h-.025zm10.235-3.903a3.1 3.1 0 0 1-4.246 0c-.509-.793-.745-1.73-.674-2.67v-2.937c-.08-.929.148-1.858.648-2.644a3.28 3.28 0 0 1 4.297 0 4.24 4.24 0 0 1 .648 2.644v2.962a4.34 4.34 0 0 1-.674 2.645zm-2.848-1.043c.09.105.201.189.326.247s.261.087.399.087a.96.96 0 0 0 .399-.087.95.95 0 0 0 .326-.247 2.07 2.07 0 0 0 .203-1.08v-4.069a2.07 2.07 0 0 0-.191-1.043.8.8 0 0 0-.737-.305.79.79 0 0 0-.725.305 1.92 1.92 0 0 0-.203 1.043v4.069a2.21 2.21 0 0 0 .203 1.08zm2.327 6.675l5.709-14.545h1.691l-5.582 14.545h-1.818zm11.049-.673a2.55 2.55 0 0 1-.96.678 2.54 2.54 0 0 1-1.163.173 2.54 2.54 0 0 1-1.17-.17 2.55 2.55 0 0 1-.966-.681c-.506-.79-.738-1.723-.661-2.658v-2.962c-.085-.928.139-1.857.636-2.645.595-.525 1.361-.815 2.155-.815s1.56.29 2.155.815c.502.786.73 1.716.648 2.645v2.962c.073.936-.163 1.87-.674 2.658zm-2.797-1.03a.78.78 0 0 0 .317.265c.128.058.269.081.408.065a.8.8 0 0 0 .406-.068c.127-.058.237-.149.318-.262.161-.337.231-.709.203-1.081v-4.068a2.03 2.03 0 0 0-.191-1.043.83.83 0 0 0-.329-.248c-.129-.054-.269-.073-.408-.057-.139-.018-.28 0-.409.054s-.243.14-.328.251a2.05 2.05 0 0 0-.191 1.043v4.068a2.11 2.11 0 0 0 .203 1.081zM51.348 32.22c.339.784.574 1.609.699 2.454h.242a8.9 8.9 0 0 1 .636-2.454l2.467-7.145h3.98l.178 1.373a2.24 2.24 0 0 1-1.017.648v8.124a2.29 2.29 0 0 1 .979.623l-.178 1.475h-4.043l-.178-1.462a2.4 2.4 0 0 1 .979-.623v-4.539c0-1.055.153-2.632.153-2.632h-.178l-.712 2.39-2.352 6.942h-2.365l-2.543-6.942a20.34 20.34 0 0 1-.712-2.39h-.165l.153 2.632v4.666c.377.128.714.352.979.648l-.178 1.373h-3.471l-.178-1.373a2.2 2.2 0 0 1 .966-.648v-8.201a2.19 2.19 0 0 1-1.005-.649l.178-1.373h4.145l2.543 7.082zm14.545-7.285c3.28 0 5.086 1.513 5.086 6.065 0 4.348-2.034 6.459-5.315 6.459s-5.086-1.691-5.086-6.23 2.06-6.294 5.315-6.294zm-.115 10.515c1.513 0 2.543-1.042 2.543-4.259s-1.081-4.247-2.543-4.247-2.454.877-2.454 4.132 1.043 4.374 2.454 4.374zm9.129-.153c.377.128.714.352.979.648l-.178 1.373h-3.471l-.178-1.373a2.2 2.2 0 0 1 .966-.648v-8.201c-.389-.119-.736-.343-1.004-.648l.178-1.373h3.649l3.534 6.878c.347.784.64 1.592.877 2.416l.204-.076c-.139-.841-.224-1.691-.254-2.543v-4.59a2.34 2.34 0 0 1-.966-.674l.165-1.373h3.484l.178 1.373c-.269.299-.604.53-.979.674v10.171h-2.772l-3.56-6.942a17.15 17.15 0 0 1-.89-2.403l-.191.064a21.02 21.02 0 0 1 .242 2.543l-.013 4.704zm17.533 2.021h-8.226l-.178-1.475a2.3 2.3 0 0 1 .979-.585v-8.112a2.3 2.3 0 0 1-.979-.598l.178-1.475H92.3v3.077l-1.271.152a2.92 2.92 0 0 1-.661-1.271h-2.759v3.051h2.467a1.92 1.92 0 0 1 .445-.737l1.106.114v3.166l-1.106.14a1.88 1.88 0 0 1-.445-.75h-2.467v3.382h2.912c.108-.471.331-.907.648-1.271l1.271.165v3.026zm3.738-.001l-.165-1.475a2.16 2.16 0 0 1 .966-.585v-2.022l-2.886-6.001c-.428-.118-.819-.346-1.132-.661l.153-1.386v-.076h4.145l.178 1.475c-.22.246-.501.43-.814.534l.598 1.36a29.53 29.53 0 0 1 1.017 2.683h.267c.27-.912.593-1.808.966-2.683l.572-1.271c-.363-.116-.691-.322-.953-.598l.178-1.475h4.043l.165 1.475a2.76 2.76 0 0 1-1.17.674l-2.771 5.95v2.047a2.54 2.54 0 0 1 .979.585l-.178 1.475-4.158-.025zm-39.211 9.028c3.28 0 5.302.381 5.302 3.268a3.09 3.09 0 0 1-1.271 2.288c.552.295 1.005.747 1.299 1.3a3.15 3.15 0 0 1 .354 1.803c0 2.416-1.627 3.471-4.628 3.585h-5.086l-.178-1.475a2.38 2.38 0 0 1 .966-.585v-8.035a2.39 2.39 0 0 1-.966-.61l.178-1.475 4.03-.064zm-.674 1.945v3.064h1.411a1.62 1.62 0 0 0 .7-.031 1.63 1.63 0 0 0 1.051-.876 1.64 1.64 0 0 0 .157-.683c0-1.36-.992-1.462-2.39-1.462l-.928-.013zm0 4.997v3.369h1.271c1.399 0 2.441-.254 2.441-1.729 0-1.093-.585-1.64-2.098-1.64h-1.615zm17.064 3.204a2.66 2.66 0 0 1 1.043.623l-.178 1.475h-4.145l-.178-1.475a1.82 1.82 0 0 1 .852-.534l-.483-1.488H66.72l-.445 1.437a2.77 2.77 0 0 1 .928.585l-.178 1.475h-4.043l-.178-1.475a2.66 2.66 0 0 1 1.182-.674l3.407-10.171h2.428l3.535 10.222zm-6.141-3.026h2.543l-.674-2.161a9.68 9.68 0 0 1-.483-2.543h-.254a9.66 9.66 0 0 1-.432 2.543l-.699 2.161zm14.341-3.509a5.79 5.79 0 0 1-.356-1.513 4.8 4.8 0 0 0-1.462-.229c-1.462 0-2.543.89-2.543 4.132s.916 4.259 2.543 4.259a9.12 9.12 0 0 0 3.395-.572l.648 1.577a8.67 8.67 0 0 1-4.475 1.119c-3.242 0-4.73-1.691-4.73-6.23s2.06-6.294 5.302-6.294c1.354-.014 2.682.375 3.814 1.119a6.46 6.46 0 0 1-.47 2.632h-1.666zm7.667-2.136a2.76 2.76 0 0 1-.979.61v8.099a2.73 2.73 0 0 1 .979.585l-.178 1.475h-4.158l-.178-1.475a2.43 2.43 0 0 1 .979-.585v-8.035a2.44 2.44 0 0 1-.979-.61l.178-1.475h4.158l.178 1.411zm3.064 10.769l-3.942-6.357 2.962-3.941a1.87 1.87 0 0 1-.686-.483l.178-1.437h4.043l.178 1.437a2.53 2.53 0 0 1-.928.572l-3.064 3.814 2.797 4.221a3.07 3.07 0 0 1 1.577.763l-.178 1.475-2.937-.064zM17.286 28.914c8.328-3.573 16.897-10.705 20.889-17.317a43.46 43.46 0 0 0 10.591 1.271A43 43 0 0 0 73.763 4.96a42.98 42.98 0 0 0 24.996 7.934 43.41 43.41 0 0 0 10.578-1.271c3.992 6.611 12.562 13.744 20.89 17.317a195.31 195.31 0 0 1-7.515 40.152c1.386.521 2.658 1.055 3.815 1.564a201.67 201.67 0 0 0 7.972-43.546 1.2 1.2 0 0 0-.166-.771c-.141-.231-.356-.407-.61-.5-8.9-3.14-18.842-11.443-21.843-18.219a1.17 1.17 0 0 0-1.068-.687 1.12 1.12 0 0 0-.356 0A39.54 39.54 0 0 1 98.746 8.7 38.27 38.27 0 0 1 74.5.268C74.289.095 74.024 0 73.75 0a1.18 1.18 0 0 0-.75.268 38.37 38.37 0 0 1-24.195 8.519c-3.974.003-7.926-.593-11.722-1.767a1.07 1.07 0 0 0-.343 0 1.17 1.17 0 0 0-1.081.687c-3.001 6.726-12.994 15.079-21.843 18.219-.254.093-.469.269-.61.5a1.19 1.19 0 0 0-.165.771 202.38 202.38 0 0 0 7.985 43.546c1.157-.509 2.428-1.043 3.814-1.564a196.13 196.13 0 0 1-7.552-40.266zM73.763 131.06a87.48 87.48 0 0 1-36.146-33.222l-4.069 1.271a91.69 91.69 0 0 0 39.707 36.248 1.41 1.41 0 0 0 .509.102 1.28 1.28 0 0 0 .496-.102 91.62 91.62 0 0 0 39.707-36.248 50.92 50.92 0 0 0-4.056-1.271c-8.634 14.294-21.176 25.822-36.147 33.222zM23.109 32.181A57.09 57.09 0 0 0 40.616 17.7c2.694.447 5.419.673 8.15.674a48.95 48.95 0 0 0 24.996-6.828 48.95 48.95 0 0 0 24.996 6.828 49.62 49.62 0 0 0 8.137-.674 57.1 57.1 0 0 0 17.508 14.482c-1.154 11.883-3.453 23.626-6.866 35.066l2.416.801c3.633-12.18 6.031-24.694 7.158-37.354a53.76 53.76 0 0 1-19.071-15.791c-3.043.611-6.14.918-9.244.916A45.86 45.86 0 0 1 73.8 8.535a45.89 45.89 0 0 1-24.996 7.298 47.08 47.08 0 0 1-9.256-.915c-5.039 6.679-11.57 12.086-19.071 15.791a191.26 191.26 0 0 0 7.158 37.342l2.428-.801a185.25 185.25 0 0 1-6.955-35.066zm50.654 92.712c-12.457-6.702-22.969-16.513-30.514-28.479l-2.632.623a84.48 84.48 0 0 0 33.171 30.73 84.57 84.57 0 0 0 33.171-30.73l-2.645-.623c-7.55 11.974-18.077 21.787-30.552 28.479z"/></g><g fill="#3b8162"><path d="M13.269 88.365A46.54 46.54 0 0 1 .491 91.086l8.747 11.112-4.272 14.571c8.188-.356 12.142-.801 18.08-2.607 8.391-2.542 9.421-4.818 9.332-7.285a3.23 3.23 0 0 0-.475-1.599 3.22 3.22 0 0 0-2.832-1.541c-.566.014-1.118.176-1.601.47-1.729.788-2.835 3.115-4.45 4.348s-3.738 1.386-4.234-.381l-5.518-19.809zm120.976 0a46.64 46.64 0 0 0 12.79 2.721l-8.747 11.112 4.272 14.571c-8.188-.356-12.142-.801-18.08-2.607-8.379-2.542-9.409-4.818-9.32-7.285a3.23 3.23 0 0 1 3.298-3.133c.564.013 1.114.172 1.597.463 1.73.788 2.836 3.115 4.45 4.348s3.815 1.386 4.234-.381l5.506-19.809zm-1.043-5.734l-6.84 24.869c2.365-11.443-33.604-17.05-52.535-17.05s-54.913 5.569-52.535 17.05l-6.904-24.869c-.814-2.352.102-6.357 6.904-9.332 11.621-5.175 27.005-9.231 52.535-9.231s40.901 4.056 52.535 9.231c6.726 3.026 7.628 6.98 6.84 9.332zm-91.148 4.437c.312-.35.484-.803.483-1.271l.648 1.271.966-.216-1.716-7.756-2.988.661.356 1.577 1.093-.242.419 1.907c.187.665.247 1.359.178 2.047-.019.191-.101.37-.232.51a.88.88 0 0 1-.493.266.81.81 0 0 1-.535-.021c-.171-.067-.314-.19-.406-.348-.31-.594-.525-1.233-.636-1.894l-1.373-6.154c-.159-.562-.206-1.149-.14-1.729a.86.86 0 0 1 .699-.648.79.79 0 0 1 .865.229 3.28 3.28 0 0 1 .509 1.271l.331 1.488 2.022-.445-.229-1.017a8.16 8.16 0 0 0-.903-2.479c-.319-.475-.788-.829-1.332-1.004s-1.132-.162-1.668.038c-.471.063-.919.24-1.306.514a2.94 2.94 0 0 0-.919 1.062c-.37 1.018-.406 2.127-.102 3.166l1.373 6.179a5.71 5.71 0 0 0 1.475 3.077 2.54 2.54 0 0 0 1.09.584 2.55 2.55 0 0 0 1.237.001 2.35 2.35 0 0 0 1.233-.623zm9.37-5.086l-1.602-10.705-2.187.331 1.589 10.654a14.73 14.73 0 0 1 .114 1.068 1.45 1.45 0 0 1-.14.725.84.84 0 0 1-.636.381.76.76 0 0 1-.342.024c-.114-.018-.224-.061-.319-.126a2.54 2.54 0 0 1-.331-.407c-.16-.443-.262-.904-.305-1.373L45.677 71.9l-2.187.331 1.589 10.693c.078 1.043.498 2.031 1.195 2.81a3.62 3.62 0 0 0 4.831-.725 4.72 4.72 0 0 0 .318-3.039v.013zm3.738 3.382l.076-2.606 2.34-.216.585 2.543 2.047-.191-3.522-14.278-2.912.267-.737 14.659 2.123-.178zm.127-4.399l.229-7.349 1.64 7.183-1.869.165zm9.663-2.784a2.44 2.44 0 0 1 .292 1.271c.14 3.356.254 5.086.305 5.2l2.212-.102a28.06 28.06 0 0 1-.216-2.988 13.63 13.63 0 0 0-.458-3.662c-.071-.25-.211-.474-.405-.648a1.37 1.37 0 0 0-.688-.331 1.6 1.6 0 0 0 1.004-.979 5.41 5.41 0 0 0 .178-2.022 10.81 10.81 0 0 0-.267-2.149c-.109-.505-.392-.956-.801-1.271-.514-.313-1.118-.447-1.716-.382l-3.662.165.661 14.532 2.212-.102-.318-6.853h.712c.161-.017.323.001.476.051s.294.133.414.242l.064.026zm-1.92-6.268h.75c.483 0 .788.076.928.318a3.48 3.48 0 0 1 .267 1.538v.089a9.75 9.75 0 0 1 0 1.411 1.15 1.15 0 0 1-.254.661.84.84 0 0 1-.61.216h-.89l-.191-4.234zm7.883 12.6l.292-2.543h2.352l.356 2.543h2.072l-2.301-14.532h-2.924l-1.983 14.545 2.136-.013zm.496-4.374l.852-7.311 1.03 7.298-1.882.013zm7.883 4.424l.165-5.213v-3.814l2.873 9.129h1.577l.445-14.545h-1.983l-.153 4.768v3.967l-2.81-8.824h-1.729l-.458 14.532h2.072zm9.447.47l.877-12.587 1.627.114.14-1.92-5.531-.381-.14 1.907 1.704.114-.89 12.6 2.212.153zm7.514.75l.203-1.894-2.746-.305.508-4.602 2.543.28.204-1.856-2.543-.28.458-4.209 2.645.293.203-1.894-4.844-.534-1.576 14.456 4.946.547zm6.357.966l.305-1.882-2.734-.432.725-4.564 2.543.394.292-1.844-2.543-.407.674-4.17 2.619.42.306-1.894-4.819-.763-2.276 14.367 4.908.776zm4.399.928a2.72 2.72 0 0 0 1.331.086c.444-.082.86-.273 1.212-.557.757-.83 1.253-1.865 1.424-2.975l1.424-6.357a4.47 4.47 0 0 0-.089-2.873 2.72 2.72 0 0 0-2.06-1.437l-3.179-.725-3.204 14.189 3.141.649zm1.869-12.714l.636.14a1.02 1.02 0 0 1 .511.225c.146.121.255.281.315.461a3.37 3.37 0 0 1-.089 1.627l-1.691 6.955a2.79 2.79 0 0 1-.585 1.36c-.13.109-.286.183-.452.217s-.339.024-.501-.026l-.712-.152 2.568-10.807z"/></g></g><defs><clipPath id="A"><path fill="#fff" d="M0 0h148v136H0z"/></clipPath></defs></svg>