<svg width="69" height="34" viewBox="0 0 69 34" fill="none" xmlns="http://www.w3.org/2000/svg">
<path d="M16.3983 14.8962C16.0209 13.6106 15.5573 11.3688 15.5573 11.3688H15.5034C15.5034 11.3688 15.0398 13.6106 14.6625 14.8962L13.4658 18.8806H17.5734L16.3983 14.8962ZM66.4125 0H36.225V34H66.4125C67.8464 34 69 32.8631 69 31.45V2.55C69 1.13688 67.8464 0 66.4125 0ZM63.825 12.75C63.825 13.4513 63.2428 14.025 62.5312 14.025H61.3022C60.5583 16.5325 58.9627 19.0613 56.6986 21.4519C57.6042 22.1319 58.5422 22.78 59.5125 23.3644C60.1055 23.7256 60.2995 24.48 59.9545 25.0856L59.1028 26.5625C58.7363 27.1894 57.9277 27.3912 57.3023 27.0194C55.9439 26.1906 54.6609 25.3088 53.4858 24.3738C52.3106 25.2981 51.0384 26.1906 49.6692 27.0194C49.0439 27.3912 48.2353 27.1894 47.8688 26.5625L47.017 25.0856C46.672 24.4906 46.8661 23.7256 47.4698 23.3644C48.4725 22.7588 49.4105 22.1213 50.2837 21.4519C49.432 20.5594 48.6773 19.6456 48.0197 18.7213C47.5884 18.1156 47.7825 17.2763 48.4186 16.9044L49.1194 16.49L49.9064 16.0331C50.4886 15.6931 51.2433 15.8525 51.6314 16.3944C52.1705 17.1381 52.7958 17.8819 53.5073 18.615C54.9628 17.1063 56.0733 15.5444 56.7417 14.025H44.4188C43.7072 14.025 43.125 13.4513 43.125 12.75V11.05C43.125 10.3488 43.7072 9.775 44.4188 9.775H51.3188V8.075C51.3188 7.37375 51.9009 6.8 52.6125 6.8H54.3375C55.0491 6.8 55.6313 7.37375 55.6313 8.075V9.775H62.5312C63.2428 9.775 63.825 10.3488 63.825 11.05V12.75ZM0 2.55V31.45C0 32.8631 1.15359 34 2.5875 34H32.775V0H2.5875C1.15359 0 0 1.13688 0 2.55ZM6.35016 25.5106L12.5494 7.54375C12.7327 7.02313 13.2178 6.68312 13.7784 6.68312H17.2823C17.8322 6.68312 18.3281 7.03375 18.5114 7.54375L24.7106 25.5106C24.9909 26.3394 24.3764 27.2 23.4816 27.2H21.0127C20.7336 27.1998 20.4622 27.1107 20.2387 26.9461C20.0153 26.7814 19.8519 26.5499 19.7728 26.2862L18.7594 22.8969H12.2691L11.288 26.2756C11.1263 26.8175 10.6195 27.2 10.0481 27.2H7.57922C6.69516 27.2 6.06984 26.3394 6.35016 25.5106Z" fill="#315D89"/>
</svg>
