<svg width="47" height="41" viewBox="0 0 47 41" fill="none" xmlns="http://www.w3.org/2000/svg">
<path d="M3.97589 19.2295C4.01622 19.883 4.18022 20.5234 4.45958 21.1185C6.05575 24.4714 9.19972 28.6744 9.19972 28.6744L9.3932 28.9105C9.45965 28.9943 9.55301 29.0538 9.65828 29.0795C9.76356 29.1052 9.87462 29.0955 9.97362 29.0522C10.0792 28.9925 10.1579 28.8961 10.1937 28.7823C10.2296 28.6684 10.2201 28.5455 10.1671 28.4383L5.95901 21.7796C5.74383 21.3956 5.68911 20.9453 5.80631 20.5228C5.92351 20.1003 6.20355 19.7384 6.58781 19.5129C6.97528 19.2845 7.4381 19.2111 7.8797 19.3079C8.32129 19.4047 8.70755 19.6642 8.95788 20.0324L13.3111 25.5104C13.6523 25.9464 14.0601 26.3287 14.5203 26.6437C18.4382 29.3827 18.9702 32.2162 19.3088 33.6329C19.3425 33.8992 19.3586 34.1674 19.3572 34.4357C19.3698 34.8785 19.3374 35.3215 19.2604 35.758L19.0186 40.3387C19.0161 40.5008 18.9491 40.6555 18.8317 40.7701C18.7143 40.8848 18.5558 40.9502 18.3898 40.9527L11.0377 40.9054C10.8718 40.903 10.7133 40.8375 10.5959 40.7229C10.4785 40.6083 10.4114 40.4536 10.4089 40.2915L10.2638 36.5136L3.25036 28.2494C2.21657 27.2376 1.53902 25.9311 1.3156 24.5186L1.26723 24.0936L0.00964369 12.5709C-0.0204303 12.2923 0.0163638 12.0107 0.11711 11.7484C0.217857 11.4861 0.379787 11.2504 0.59007 11.0598C0.734759 10.9329 0.9041 10.8357 1.08803 10.7739C1.27196 10.7122 1.46672 10.6872 1.66074 10.7004C1.85476 10.7136 2.04408 10.7648 2.21745 10.8509C2.39081 10.9369 2.54469 11.0562 2.66993 11.2014C3.10525 11.7209 3.34709 13.2793 3.44383 13.7043C3.73277 15.4244 3.92653 17.1585 4.02426 18.899C3.98458 19.0046 3.9681 19.1173 3.97589 19.2295ZM5.28185 18.0962V18.474C5.42257 18.3376 5.58616 18.2258 5.76554 18.1434C5.96729 18.0017 6.19846 17.905 6.4427 17.86C6.4427 17.8538 6.44395 17.8477 6.44638 17.842C6.44881 17.8362 6.45237 17.831 6.45687 17.8267C6.46136 17.8223 6.46669 17.8188 6.47256 17.8164C6.47843 17.814 6.48472 17.8128 6.49107 17.8128C6.27823 16.2539 5.97136 14.7085 5.57206 13.1849C5.50208 12.9076 5.36431 12.6511 5.17056 12.4373C4.97681 12.2235 4.73285 12.0587 4.45958 11.957C4.57921 12.3608 4.67609 12.7707 4.74979 13.1849C5.01765 14.8114 5.19526 16.4509 5.28185 18.0962ZM7.65192 17.6711C8.01359 17.6881 8.37138 17.7517 8.71603 17.86C8.6193 17.1045 8.08724 15.5461 7.89376 14.8377C7.83791 14.5599 7.70443 14.3026 7.50809 14.0942C7.31175 13.8858 7.06021 13.7346 6.78128 13.6571C6.97476 14.5071 7.45845 16.1128 7.60355 16.9628L7.70029 17.5295C7.65192 17.5295 7.65192 17.6239 7.65192 17.6711ZM46.4437 11.0598C46.299 10.9329 46.1297 10.8357 45.9458 10.7739C45.7618 10.7122 45.5671 10.6872 45.3731 10.7004C45.179 10.7136 44.9897 10.7648 44.8163 10.8509C44.643 10.9369 44.4891 11.0562 44.3639 11.2014C43.9285 11.7209 43.6867 13.2793 43.59 13.7043C43.301 15.4244 43.1073 17.1585 43.0095 18.899V19.2295C42.9692 19.883 42.8052 20.5234 42.5259 21.1185C40.9297 24.4714 37.7857 28.6744 37.7857 28.6744L37.6406 28.9577C37.5742 29.0415 37.4808 29.101 37.3755 29.1267C37.2702 29.1524 37.1592 29.1428 37.0602 29.0994C36.9546 29.0397 36.8759 28.9433 36.8401 28.8295C36.8042 28.7156 36.8137 28.5928 36.8667 28.4855L41.0748 21.8269C41.29 21.4429 41.3447 20.9925 41.2275 20.57C41.1103 20.1475 40.8302 19.7856 40.446 19.5601C40.0585 19.3318 39.5957 19.2583 39.1541 19.3551C38.7125 19.4519 38.3262 19.7114 38.0759 20.0796L33.7227 25.5576C33.3815 25.9936 32.9737 26.3759 32.5135 26.691C28.5956 29.43 28.0636 32.2634 27.725 33.6801C27.6913 33.9465 27.6752 34.2146 27.6766 34.4829C27.664 34.9257 27.6964 35.3687 27.7734 35.8052L28.0152 40.386C28.0177 40.548 28.0847 40.7028 28.2021 40.8174C28.3195 40.932 28.478 40.9974 28.644 40.9999L35.9961 40.9527C36.162 40.9502 36.3205 40.8848 36.4379 40.7701C36.5553 40.6555 36.6224 40.5008 36.6249 40.3387L36.77 36.5608L43.7834 28.3438C44.8172 27.332 45.4948 26.0255 45.7182 24.6131L45.7666 24.1881L46.9758 12.6182C47.0339 12.3357 47.0154 12.0432 46.9221 11.7699C46.8288 11.4965 46.6639 11.2517 46.4437 11.0598ZM41.7519 18.474V18.0962C41.8526 16.4499 42.0463 14.8103 42.3324 13.1849C42.3882 12.7674 42.4854 12.3562 42.6226 11.957C42.337 12.0376 42.0807 12.1958 41.8837 12.4132C41.6867 12.6306 41.5572 12.8982 41.5101 13.1849C41.1715 14.3655 40.7846 16.6322 40.5911 17.8128C40.5911 17.8253 40.5962 17.8374 40.6053 17.8462C40.6143 17.8551 40.6266 17.86 40.6395 17.86C40.8813 17.9545 41.0748 18.0489 41.3166 18.1434C41.4524 18.2649 41.5979 18.3754 41.7519 18.474ZM39.4302 16.9156C39.527 16.0655 40.059 14.5071 40.2525 13.6099C39.9821 13.7024 39.7392 13.8585 39.5452 14.0644C39.3511 14.2703 39.212 14.5197 39.14 14.7905C38.9466 15.4988 38.4145 17.0572 38.3178 17.8128C38.655 17.6778 39.0175 17.6134 39.3819 17.6239V17.4823L39.4302 16.9156ZM11.3763 12.4293C11.6169 12.1694 11.7655 11.841 11.8004 11.4923C11.8352 11.1437 11.7544 10.7934 11.5698 10.4931L11.2312 9.92639C11.1179 9.72028 11.0492 9.4936 11.0295 9.26046C11.0097 9.02731 11.0393 8.7927 11.1165 8.57121C11.1936 8.34973 11.3166 8.14611 11.4778 7.97304C11.639 7.79996 11.835 7.66113 12.0535 7.56518L12.6823 7.32906C13.0125 7.19423 13.292 6.96306 13.4825 6.66719C13.673 6.37132 13.7651 6.0252 13.7464 5.67622L13.698 5.01508C13.6845 4.77997 13.7212 4.54469 13.8057 4.32415C13.8902 4.10361 14.0207 3.90261 14.189 3.7339C14.3572 3.56519 14.5596 3.43244 14.7831 3.34408C15.0067 3.25571 15.2466 3.21365 15.4877 3.22056L16.1648 3.26778C16.5223 3.28608 16.8768 3.19608 17.1798 3.01011C17.4829 2.82413 17.7196 2.55126 17.8577 2.22885L18.0996 1.61494C18.1896 1.39462 18.3264 1.19545 18.5011 1.0306C18.6758 0.865749 18.8843 0.738962 19.1129 0.658619C19.3415 0.578277 19.5849 0.546207 19.8272 0.564529C20.0694 0.58285 20.3048 0.651146 20.518 0.764905L21.0985 1.09547C21.4146 1.25692 21.7735 1.32079 22.1276 1.27863C22.4818 1.23646 22.8145 1.09025 23.0816 0.859353L23.5653 0.434335C23.7414 0.274197 23.9511 0.153281 24.1798 0.0799327C24.4084 0.00658438 24.6507 -0.0174505 24.8898 0.00948672C25.1289 0.0364239 25.3592 0.113692 25.5648 0.235959C25.7703 0.358225 25.9463 0.522579 26.0804 0.71768L26.4674 1.23715C26.6733 1.52295 26.9676 1.73679 27.3071 1.84728C27.6466 1.95777 28.0134 1.9591 28.3538 1.85106L28.9826 1.66216C29.2148 1.59699 29.4584 1.58013 29.6977 1.61267C29.9371 1.6452 30.1667 1.72641 30.3719 1.85103C30.577 1.97566 30.7531 2.14093 30.8887 2.33617C31.0243 2.5314 31.1165 2.75225 31.1592 2.98444L31.2559 3.64558C31.3204 3.98557 31.489 4.29847 31.7395 4.54298C31.9899 4.78748 32.3104 4.95209 32.6586 5.01508L33.3358 5.10953C33.5728 5.14302 33.7996 5.22609 34.0008 5.35304C34.2019 5.47999 34.3726 5.64784 34.5012 5.84512C34.6297 6.0424 34.7132 6.26445 34.7458 6.49611C34.7784 6.72776 34.7594 6.96356 34.6901 7.18739L34.4966 7.8013C34.3947 8.13872 34.4054 8.49905 34.5271 8.83014C34.6489 9.16124 34.8754 9.44594 35.1738 9.64304L35.7058 10.0208C35.9005 10.1558 36.0639 10.3293 36.1855 10.5299C36.307 10.7306 36.3839 10.954 36.4113 11.1855C36.4387 11.4171 36.4159 11.6517 36.3443 11.8741C36.2728 12.0965 36.1541 12.3018 35.9961 12.4765L35.5607 12.9487C35.3202 13.2086 35.1715 13.537 35.1367 13.8857C35.1019 14.2343 35.1827 14.5846 35.3673 14.8849L35.7058 15.4516C35.8192 15.6577 35.8879 15.8844 35.9076 16.1175C35.9273 16.3507 35.8977 16.5853 35.8206 16.8068C35.7435 17.0283 35.6205 17.2319 35.4593 17.405C35.2981 17.578 35.1021 17.7169 34.8836 17.8128L34.2548 18.0489C33.9246 18.1838 33.6451 18.4149 33.4546 18.7108C33.2641 19.0067 33.1719 19.3528 33.1907 19.7018L33.239 20.3629C33.2525 20.598 33.2159 20.8333 33.1314 21.0539C33.0468 21.2744 32.9163 21.4754 32.7481 21.6441C32.5798 21.8128 32.3775 21.9456 32.1539 22.0339C31.9304 22.1223 31.6905 22.1644 31.4494 22.1574L30.7722 22.1102C30.4148 22.0919 30.0603 22.1819 29.7572 22.3679C29.4542 22.5539 29.2174 22.8267 29.0793 23.1491L28.9342 23.7631C28.8442 23.9834 28.7073 24.1825 28.5327 24.3474C28.358 24.5123 28.1495 24.639 27.9209 24.7194C27.6923 24.7997 27.4489 24.8318 27.2066 24.8135C26.9644 24.7952 26.7289 24.7269 26.5158 24.6131L25.9353 24.2825C25.6192 24.1211 25.2603 24.0572 24.9062 24.0994C24.552 24.1415 24.2193 24.2878 23.9522 24.5186L23.4685 24.9437C23.2924 25.1038 23.0827 25.2247 22.854 25.2981C22.6254 25.3714 22.3831 25.3955 22.144 25.3685C21.9049 25.3416 21.6746 25.2643 21.469 25.142C21.2635 25.0198 21.0875 24.8554 20.9534 24.6603L20.5664 24.1409C20.3605 23.8551 20.0662 23.6412 19.7267 23.5307C19.3872 23.4202 19.0204 23.4189 18.68 23.5269L18.0512 23.7158C17.819 23.781 17.5754 23.7979 17.3361 23.7653C17.0967 23.7328 16.8671 23.6516 16.6619 23.527C16.4568 23.4023 16.2807 23.2371 16.1451 23.0418C16.0095 22.8466 15.9173 22.6257 15.8746 22.3936L15.7779 21.7324C15.7134 21.3924 15.5448 21.0795 15.2943 20.835C15.0439 20.5905 14.7234 20.4259 14.3752 20.3629L13.698 20.2685C13.461 20.235 13.2342 20.1519 13.033 20.025C12.8319 19.898 12.6612 19.7302 12.5326 19.5329C12.4041 19.3356 12.3206 19.1136 12.288 18.8819C12.2554 18.6502 12.2744 18.4144 12.3437 18.1906L12.5372 17.5767C12.6391 17.2393 12.6284 16.879 12.5067 16.5479C12.3849 16.2168 12.1584 15.9321 11.86 15.735L11.328 15.3572C11.1333 15.2222 10.9699 15.0487 10.8483 14.8481C10.7268 14.6474 10.6499 14.424 10.6225 14.1925C10.5951 13.9609 10.6179 13.7263 10.6895 13.5039C10.761 13.2815 10.8797 13.0762 11.0377 12.9015L11.3763 12.4293ZM15.4393 12.6654C15.4393 14.2252 15.913 15.7499 16.8006 17.0469C17.6882 18.3438 18.9497 19.3546 20.4257 19.9515C21.9017 20.5484 23.5259 20.7046 25.0928 20.4003C26.6597 20.096 28.0989 19.3449 29.2286 18.2419C30.3583 17.139 31.1276 15.7338 31.4393 14.204C31.751 12.6741 31.591 11.0884 30.9796 9.64738C30.3682 8.20633 29.3329 6.97463 28.0046 6.10806C26.6762 5.24149 25.1145 4.77896 23.5169 4.77896C21.3758 4.7827 19.3234 5.61479 17.8094 7.09298C16.2954 8.57116 15.4431 10.5749 15.4393 12.6654ZM23.0332 17.435V18.474C23.0311 18.5055 23.0359 18.5371 23.0473 18.5667C23.0587 18.5963 23.0764 18.6232 23.0993 18.6456C23.1222 18.6679 23.1497 18.6852 23.18 18.6964C23.2103 18.7075 23.2427 18.7122 23.2751 18.7101H24.2424C24.2747 18.7122 24.3071 18.7075 24.3375 18.6964C24.3678 18.6852 24.3953 18.6679 24.4182 18.6456C24.4411 18.6232 24.4588 18.5963 24.4702 18.5667C24.4816 18.5371 24.4864 18.5055 24.4843 18.474V17.3878C25.0803 17.2931 25.6351 17.0305 26.0804 16.6322C26.324 16.3998 26.5145 16.1199 26.6395 15.8106C26.7645 15.5014 26.8213 15.1698 26.806 14.8377C26.8244 14.5052 26.7691 14.1728 26.6439 13.8631C26.5187 13.5534 26.3265 13.2737 26.0804 13.0432C25.4129 12.5055 24.6618 12.075 23.8555 11.7681C23.5233 11.6493 23.2249 11.4551 22.9848 11.2014C22.8279 10.9971 22.743 10.7485 22.743 10.4931C22.743 10.2376 22.8279 9.98907 22.9848 9.78472C23.0669 9.68874 23.171 9.61305 23.2886 9.56381C23.4063 9.51457 23.5343 9.49318 23.662 9.50137C23.8012 9.49578 23.9398 9.52288 24.066 9.5804C24.1922 9.63792 24.3025 9.72418 24.3875 9.83194C24.5534 10.0498 24.6387 10.3162 24.6294 10.5875C24.6286 10.6229 24.6361 10.6581 24.6511 10.6903C24.6662 10.7225 24.6885 10.751 24.7164 10.7737C24.7442 10.7964 24.777 10.8126 24.8121 10.8213C24.8473 10.8299 24.8841 10.8307 24.9196 10.8236H26.4674C26.6609 10.8236 26.7576 10.682 26.7576 10.4931C26.7394 9.86711 26.5002 9.26651 26.0804 8.79301C25.6481 8.32567 25.0702 8.01035 24.4359 7.89575V6.76237C24.438 6.73082 24.4333 6.69919 24.4219 6.6696C24.4105 6.64001 24.3927 6.61313 24.3698 6.59078C24.3469 6.56842 24.3194 6.5511 24.2891 6.53997C24.2588 6.52884 24.2264 6.52416 24.1941 6.52625H23.2267C23.1944 6.52416 23.162 6.52884 23.1317 6.53997C23.1014 6.5511 23.0738 6.56842 23.0509 6.59078C23.028 6.61313 23.0103 6.64001 22.9989 6.6696C22.9875 6.69919 22.9827 6.73082 22.9848 6.76237V7.89575C22.3288 7.96569 21.7157 8.24836 21.2436 8.69856C21 8.93095 20.8095 9.21093 20.6845 9.52017C20.5595 9.82942 20.5028 10.1609 20.518 10.4931C20.49 10.8265 20.5408 11.1617 20.6666 11.4729C20.7924 11.7841 20.9898 12.0628 21.2436 12.2876C21.9151 12.8076 22.6659 13.2219 23.4685 13.5154C23.8007 13.6342 24.0991 13.8285 24.3392 14.0821C24.5117 14.3147 24.5971 14.5982 24.581 14.8849C24.5824 15.1406 24.4974 15.3896 24.3392 15.5933C24.2505 15.694 24.1382 15.7723 24.0119 15.8216C23.8856 15.8709 23.749 15.8898 23.6136 15.8766C23.4453 15.8875 23.2765 15.8636 23.1182 15.8067C22.9598 15.7497 22.8156 15.6609 22.6946 15.5461C22.4889 15.3069 22.3699 15.0081 22.356 14.696C22.3505 14.6227 22.3181 14.5537 22.2648 14.5017C22.2116 14.4497 22.1409 14.4181 22.0658 14.4127L20.518 14.4599C20.3246 14.4599 20.2278 14.6016 20.2278 14.7905C20.226 15.1434 20.2979 15.493 20.4393 15.8178C20.5807 16.1426 20.7886 16.4358 21.0501 16.6794C21.6309 17.0983 22.3153 17.3591 23.0332 17.435Z" fill="#128266"/>
</svg>
