<?xml version="1.0" encoding="utf-8"?>
<!-- Generator: Adobe Illustrator 25.4.1, SVG Export Plug-In . SVG Version: 6.00 Build 0)  -->
<svg width="51" height="40" version="1.1" id="Layer_1" xmlns="http://www.w3.org/2000/svg" xmlns:xlink="http://www.w3.org/1999/xlink" x="0px" y="0px" fill="#936C01"
	 viewBox="0 0 737.5 794.1" style="enable-background:new 0 0 737.5 794.1;" xml:space="preserve">
<g>
	<path d="M383.5,65.6c197,5.5,354,167,354,364.2c0,201.2-163.1,364.4-364.4,364.4c-170.9,0-319.5-119.4-356-286.4
		c-9.3-43.3,56.5-57.5,65.8-14.2c29.8,136.3,150.8,233.2,290.1,233.2c164,0,297-133,297-297c0-160-126.8-291.3-286.6-296.8v57.1
		c0,21.8-24.5,34.2-42.1,22.3c-46.5-26.9-93.1-53.8-139.6-80.7c-18.2-10.5-17.7-36.7,0.2-46.7c47-27.2,94-54.3,141-81.4
		c18.1-10.5,40.4,2.9,40.4,23.3L383.5,65.6L383.5,65.6z M251,491.1l57.1-5.7c6.5,36,25.5,55.4,63.1,55.4c24.7,0,56.7-10,56.7-39.8
		c0-31.1-50.1-36.8-73.6-42.7c-46.2-11.6-92.3-31.9-92.3-87.3c0-49.5,38.7-73.1,81.2-79.3v-36.7h51.2v36.8
		c46.2,6.7,81.7,32.2,83.7,86.8l-58.7,2c-5.2-31.3-21.9-42.1-52.8-42.1c-17.9,0-48.8,5.3-48.8,28.6c0,25,44.2,32.8,62.3,37.1
		c56.3,13.2,106.4,29.9,106.4,96.5c0,35-20.6,65.5-53,79c-11.2,4.6-24.3,7.8-39.2,9.4v36.1h-51.2v-36.7
		C291.1,581.1,258.1,550.9,251,491.1L251,491.1z M37.1,357.5c23.4-3.1,44.8,13.4,47.9,36.8S71.6,439,48.2,442.1
		c-23.4,3.1-44.8-13.4-47.9-36.8C-2.7,381.9,13.8,360.5,37.1,357.5z M82.4,245.6c23,5.1,37.5,27.9,32.4,50.9
		c-5.1,23-27.9,37.5-50.9,32.4c-23-5.1-37.5-27.9-32.4-50.9C36.6,255,59.4,240.5,82.4,245.6z M163.1,156
		c19.9,12.7,25.7,39.1,13,58.9c-12.7,19.9-39.1,25.7-58.9,13c-19.9-12.7-25.7-39.1-13-58.9C116.9,149.1,143.3,143.3,163.1,156
		L163.1,156z"/>
</g>
</svg>
