<svg width="45" height="50" viewBox="0 0 45 50" fill="none" xmlns="http://www.w3.org/2000/svg">
<path d="M30.5683 25.483C30.5473 25.4796 30.5252 25.479 30.5044 25.4746C30.3322 25.4536 30.1599 25.4341 29.9853 25.4175C29.9853 25.4341 29.9802 25.452 29.9802 25.4687C29.9762 25.5193 29.9683 25.5675 29.9626 25.6187C29.9302 25.902 29.8442 26.1764 29.7098 26.4415C28.8038 28.6771 25.8713 32.9151 24.1452 35.3211L23.7898 30.3221C24.2947 30.07 24.727 29.6487 25.0053 29.1622C25.2052 28.8128 25.3277 28.431 25.3277 28.0406C25.3277 28.0406 24.0401 28.5995 22.7255 28.5995C22.6502 28.5995 22.5753 28.5989 22.5004 28.5951C22.4245 28.5991 22.3502 28.5995 22.2754 28.5995C20.9613 28.5995 19.6731 28.0406 19.6731 28.0406C19.6731 28.4306 19.7962 28.8128 19.9949 29.1622C20.2732 29.6489 20.7067 30.0684 21.211 30.3221L20.8556 35.3211C19.1289 32.9149 16.1964 28.6771 15.291 26.4415C15.1556 26.176 15.07 25.9014 15.0382 25.6187C15.0313 25.5675 15.0228 25.5193 15.0206 25.4687C15.02 25.452 15.0137 25.4341 15.0137 25.4175C14.8396 25.4336 14.668 25.453 14.4958 25.4746C14.4743 25.479 14.4511 25.4796 14.4312 25.483C8.82405 26.2485 4.42832 30.7093 3.87764 36.2749H41.1232C40.5723 30.7093 36.1755 26.2486 30.5683 25.483Z" fill="#D23743"/>
<path d="M12.609 18.9085C12.8662 18.9763 13.1376 19.0134 13.4187 19.0134H13.9724C14.0184 19.0134 14.0625 19.0073 14.1084 19.0051C15.584 23.528 18.7822 26.6686 22.5008 26.6686C25.8571 26.6686 28.7896 24.1068 30.4156 20.2817C30.9681 19.8968 31.4441 19.469 31.8118 18.9984C31.9909 18.9851 32.1666 18.9617 32.3347 18.9206C33.6029 18.6134 34.5397 17.5545 34.5397 16.2888V14.1516C34.5397 12.8871 33.6035 11.8266 32.3347 11.5198V9.08486C32.3341 4.07544 27.9101 -0.000244141 22.4707 -0.000244141C17.0318 -0.000244141 12.609 4.07544 12.609 9.08546V11.5343C11.3696 11.8587 10.4613 12.9078 10.4613 14.1522V16.2896C10.4613 17.5362 11.3696 18.5835 12.609 18.9085ZM22.4707 1.89642C26.3455 1.89642 29.5609 4.51314 30.1648 7.92591C28.483 5.41911 25.6784 3.77523 22.5 3.77523C19.274 3.77523 16.4322 5.46753 14.7593 8.03802C15.312 4.57049 18.5556 1.89642 22.4707 1.89642ZM14.6666 15.2534C14.9811 15.354 15.3403 15.514 15.7275 15.7791C15.7275 15.7791 14.8067 10.4194 16.7509 9.66841C16.7509 9.66841 19.4335 10.945 22.5004 11.028C25.5667 10.9452 28.2499 9.66841 28.2499 9.66841C30.1942 10.4196 29.2721 15.7791 29.2721 15.7791C29.6364 15.5306 29.9764 15.3713 30.2767 15.2701V17.0374C30.1096 17.8192 29.8892 18.5658 29.6166 19.268C28.3677 20.1168 26.5877 20.7186 24.5829 20.8859C24.354 20.5393 23.9574 20.3087 23.504 20.3087H21.7933C21.0805 20.3087 20.5041 20.8738 20.5041 21.571C20.5041 22.2683 21.0805 22.8334 21.7933 22.8334H23.504C24.0011 22.8334 24.4265 22.5562 24.6402 22.1522C26.1271 22.0383 27.4849 21.7099 28.6538 21.2288C27.1623 23.7004 24.962 25.2711 22.5004 25.2711C18.7626 25.2711 15.6223 21.6605 14.6668 16.7447V15.2534H14.6666Z" fill="#D23743"/>
<path d="M43.0005 38.2356H41.1525H3.84768H2.00034C0.895944 38.2356 0 39.114 0 40.1962V48.0396C0 49.1223 0.895944 50.0001 2.00034 50.0001H43.0005C44.1049 50.0001 45.0002 49.1223 45.0002 48.0396V40.1966C45.0004 39.114 44.1051 38.2356 43.0005 38.2356ZM8.96349 43.6369L8.8967 43.7008L7.89593 44.657C7.72876 44.8169 7.62392 45.1326 7.66359 45.3592L7.91576 46.8003C7.95542 47.0253 7.81821 47.1237 7.61138 47.0169L6.29104 46.337C6.08481 46.2302 5.74542 46.2302 5.53959 46.337L4.21925 47.0169C4.01242 47.1237 3.87521 47.0259 3.91447 46.8003L4.16664 45.3592C4.2063 45.133 4.10208 44.8169 3.9343 44.657L2.86674 43.6369C2.70018 43.4774 2.75118 43.319 2.98291 43.2863L4.45847 43.0758C4.68959 43.0424 4.96402 42.8474 5.06703 42.6424L5.37647 42.0279L5.7272 41.3319C5.83042 41.1263 5.99981 41.1263 6.10282 41.3319L6.76299 42.6424C6.86661 42.8474 7.14145 43.043 7.37216 43.0758L8.84833 43.2863C9.07925 43.319 9.13066 43.4774 8.96349 43.6369ZM17.2563 43.6369L16.7526 44.1187L16.1887 44.657C16.0216 44.8169 15.9167 45.1326 15.9564 45.3592L16.2086 46.8003C16.2482 47.0253 16.111 47.1237 15.9042 47.0169L14.5838 46.337C14.3776 46.2302 14.0382 46.2302 13.8324 46.337L12.5121 47.0169C12.3052 47.1237 12.168 47.0259 12.2073 46.8003L12.4594 45.3592C12.4991 45.133 12.3949 44.8169 12.2271 44.657L11.571 44.0298L11.1589 43.6369C10.9924 43.4774 11.0434 43.319 11.2751 43.2863L12.7507 43.0758C12.9818 43.0424 13.2562 42.8474 13.3592 42.6424L14.02 41.3319C14.1232 41.1263 14.2926 41.1263 14.3956 41.3319L15.0558 42.6424C15.1594 42.8474 15.4342 43.043 15.665 43.0758L17.1411 43.2863C17.3718 43.319 17.4235 43.4774 17.2563 43.6369ZM25.5489 43.6369L25.0445 44.1187L24.4813 44.657C24.3135 44.8169 24.2093 45.1326 24.249 45.3592L24.5005 46.8003C24.5396 47.0253 24.403 47.1237 24.1962 47.0169L22.8758 46.337C22.6696 46.2302 22.3302 46.2302 22.1244 46.337L20.804 47.0169C20.5972 47.1237 20.46 47.0259 20.4993 46.8003L20.7514 45.3592C20.7911 45.133 20.6869 44.8169 20.5191 44.657L19.9559 44.1187L19.4515 43.6369C19.285 43.4774 19.336 43.319 19.5677 43.2863L21.0433 43.0758C21.2744 43.0424 21.5488 42.8474 21.6518 42.6424L22.3126 41.3319C22.4158 41.1263 22.5852 41.1263 22.6882 41.3319L23.3484 42.6424C23.4526 42.8474 23.7268 43.043 23.9576 43.0758L25.4331 43.2863C25.6644 43.319 25.716 43.4774 25.5489 43.6369ZM33.8415 43.6369L33.43 44.0298L32.7739 44.657C32.6061 44.8169 32.5019 45.1326 32.5416 45.3592L32.7931 46.8003C32.8322 47.0253 32.6956 47.1237 32.4888 47.0169L31.1684 46.337C30.9628 46.2302 30.6228 46.2302 30.417 46.337L29.0972 47.0169C28.8898 47.1237 28.7532 47.0259 28.7925 46.8003L29.044 45.3592C29.0837 45.133 28.9801 44.8169 28.8123 44.657L28.2484 44.1187L27.7441 43.6369C27.5782 43.4774 27.6292 43.319 27.8603 43.2863L29.3358 43.0758C29.567 43.0424 29.8414 42.8474 29.9438 42.6424L30.6046 41.3319C30.7078 41.1263 30.8772 41.1263 30.9802 41.3319L31.6398 42.6424C31.744 42.8474 32.0182 43.043 32.2489 43.0758L33.7245 43.2863C33.957 43.319 34.0086 43.4774 33.8415 43.6369ZM42.1335 43.6369L41.0659 44.657C40.8981 44.8169 40.7939 45.1326 40.8336 45.3592L41.0851 46.8003C41.1242 47.0253 40.9876 47.1237 40.7807 47.0169L39.4604 46.337C39.2548 46.2302 38.9148 46.2302 38.709 46.337L37.3892 47.0169C37.1818 47.1237 37.0452 47.0259 37.0844 46.8003L37.336 45.3592C37.3757 45.133 37.272 44.8169 37.1043 44.657L36.1029 43.7008L36.0361 43.6369C35.8701 43.4774 35.9211 43.319 36.1523 43.2863L37.6278 43.0758C37.859 43.0424 38.1334 42.8474 38.2358 42.6424L38.8966 41.3319C38.9998 41.1263 39.1692 41.1263 39.2722 41.3319L39.6223 42.0279L39.9317 42.6424C40.036 42.8474 40.3102 43.043 40.5409 43.0758L42.0165 43.2863C42.2496 43.319 42.3006 43.4774 42.1335 43.6369Z" fill="#D23743"/>
</svg>
