<svg width="159" height="33" viewBox="0 0 159 33" fill="none" xmlns="http://www.w3.org/2000/svg">
<rect width="33" height="33" rx="3" fill="#030327"/>
<g clip-path="url(#clip0_1522_20)">
<path d="M18.4876 4.18272C18.5199 4.20995 18.5522 4.23719 18.5854 4.26525C19.0206 4.64717 19.2729 5.09599 19.5587 5.61021C19.5718 4.84304 19.5849 4.07586 19.5984 3.28544C21.3002 3.28544 23.002 3.28544 24.7554 3.28544C24.7554 7.20207 24.7554 11.1187 24.7554 15.154C23.0536 15.154 21.3518 15.154 19.5984 15.154C19.5996 14.6586 19.6009 14.1632 19.6022 13.6528C19.6023 13.3381 19.6022 13.0234 19.6017 12.7087C19.601 12.2097 19.6006 11.7107 19.6026 11.2118C19.604 10.8482 19.6042 10.4848 19.603 10.1213C19.6023 9.92903 19.6023 9.73685 19.6038 9.54462C19.6052 9.36312 19.6049 9.1817 19.6033 9.0002C19.603 8.93413 19.6033 8.86805 19.6043 8.80199C19.6151 8.03594 19.2417 7.47747 18.7653 6.91535C18.722 6.86314 18.722 6.86314 18.6778 6.80988C18.2662 6.34981 17.7235 6.13829 17.1389 6.01807C17.1389 11.2268 17.1389 16.4355 17.1389 21.8021C16.2749 21.8021 15.4109 21.8021 14.5207 21.8021C14.5076 16.7548 14.4945 11.7076 14.481 6.50749C14.0989 6.75538 14.0989 6.75538 13.762 7.0479C13.7385 7.07072 13.7151 7.09353 13.6909 7.11704C13.4854 7.32035 13.3048 7.53843 13.1323 7.77184C13.104 7.80844 13.0757 7.84503 13.0466 7.88273C12.2917 8.87914 11.8039 10.0448 11.4265 11.2386C11.407 11.2995 11.407 11.2995 11.3872 11.3616C11.0286 12.4999 10.8458 13.6843 10.6911 14.8671C10.6727 14.9909 10.6727 14.9909 10.6331 15.154C8.85271 15.154 7.07235 15.154 5.23804 15.154C5.23804 14.9232 5.24586 14.7377 5.28174 14.5148C5.28636 14.4858 5.29099 14.4568 5.29576 14.4269C5.31091 14.3327 5.32649 14.2387 5.34217 14.1446C5.34753 14.1121 5.35288 14.0796 5.3584 14.0461C5.93018 10.5868 7.17892 6.84576 9.99837 4.63136C10.046 4.59256 10.0935 4.55374 10.1411 4.5149C11.1719 3.68417 12.3906 3.20098 13.6876 3.04073C13.7176 3.03688 13.7475 3.03304 13.7784 3.02908C15.3352 2.84725 17.2514 3.10842 18.4876 4.18272Z" fill="#40B4DD"/>
<path d="M4.99994 17.8052C6.79339 17.8052 8.58685 17.8052 10.4347 17.8052C10.4608 18.3974 10.487 18.9896 10.514 19.5997C10.6637 21.3731 10.9722 23.1931 12.1404 24.5756C12.1602 24.6013 12.18 24.6271 12.2004 24.6536C12.7402 25.3501 13.6021 25.7792 14.4462 25.9113C15.6313 25.9899 16.6691 25.5959 17.5751 24.8203C17.6271 24.777 17.6271 24.777 17.6801 24.7328C18.8011 23.7545 19.385 22.183 19.5104 20.7115C19.5272 20.4507 19.5286 20.1894 19.5315 19.9281C19.5322 19.8735 19.533 19.8189 19.5337 19.7642C19.5364 19.5641 19.5388 19.364 19.5413 19.1638C19.547 18.7155 19.5527 18.2671 19.5586 17.8052C21.2604 17.8052 22.9623 17.8052 24.7156 17.8052C24.7305 19.7246 24.7305 19.7246 24.7346 20.3221C24.659 23.0737 24.659 23.0737 25.8005 25.456C26.2036 25.8332 26.7453 25.9495 27.2808 25.9333C27.8221 25.8851 28.353 25.7637 28.8809 25.636C29.1226 26.431 29.0431 27.3789 28.6826 28.1239C28.128 29.0767 27.2314 29.6335 26.1995 29.9019C25.0363 30.1867 23.8259 29.9815 22.8049 29.3542C21.4465 28.4664 20.8674 26.9908 20.5233 25.4359C20.5055 25.3531 20.4882 25.2703 20.471 25.1874C20.4449 25.2526 20.4449 25.2526 20.4183 25.3193C20.1207 26.0457 19.738 26.7072 19.2413 27.3082C19.2134 27.3421 19.1856 27.3759 19.157 27.4108C17.9461 28.8349 16.4457 29.7977 14.5886 29.9927C14.3316 30.0103 14.074 30.01 13.8165 30.0102C13.7856 30.0103 13.7547 30.0103 13.7228 30.0103C13.2264 30.0096 12.7465 29.984 12.2594 29.8777C12.227 29.8707 12.1945 29.8637 12.161 29.8565C11.0954 29.6195 10.0441 29.2039 9.16523 28.5318C9.13103 28.5059 9.13103 28.5059 9.09614 28.4796C8.60261 28.1039 8.12318 27.6785 7.73713 27.1858C7.70203 27.143 7.6669 27.1002 7.63176 27.0574C7.31087 26.6617 7.04063 26.2418 6.78506 25.7991C6.76671 25.7676 6.74836 25.736 6.72945 25.7035C5.68349 23.8848 5.22415 21.8469 5.03961 19.7629C5.03524 19.7145 5.03524 19.7145 5.03078 19.6652C4.97747 19.0471 4.99994 18.4245 4.99994 17.8052Z" fill="#F05354"/>
</g>
<path d="M47.88 10.14V12.8H43.7V24H40.58V12.8H36.4V10.14H47.88ZM48.8852 24V8.96L51.8652 8.48V13.52C52.0652 13.4533 52.3185 13.3933 52.6252 13.34C52.9452 13.2733 53.2518 13.24 53.5452 13.24C54.3985 13.24 55.1052 13.36 55.6652 13.6C56.2385 13.8267 56.6918 14.1533 57.0252 14.58C57.3718 15.0067 57.6118 15.5133 57.7452 16.1C57.8918 16.6867 57.9652 17.34 57.9652 18.06V24H54.9852V18.42C54.9852 17.46 54.8585 16.78 54.6052 16.38C54.3652 15.98 53.9118 15.78 53.2452 15.78C52.9785 15.78 52.7252 15.8067 52.4852 15.86C52.2585 15.9 52.0518 15.9467 51.8652 16V24H48.8852ZM59.3625 18.82C59.3625 17.8867 59.5025 17.0733 59.7825 16.38C60.0758 15.6733 60.4558 15.0867 60.9225 14.62C61.3892 14.1533 61.9225 13.8 62.5225 13.56C63.1358 13.32 63.7625 13.2 64.4025 13.2C65.8958 13.2 67.0758 13.66 67.9425 14.58C68.8092 15.4867 69.2425 16.8267 69.2425 18.6C69.2425 18.7733 69.2358 18.9667 69.2225 19.18C69.2092 19.38 69.1958 19.56 69.1825 19.72H62.4225C62.4892 20.3333 62.7758 20.82 63.2825 21.18C63.7892 21.54 64.4692 21.72 65.3225 21.72C65.8692 21.72 66.4025 21.6733 66.9225 21.58C67.4558 21.4733 67.8892 21.3467 68.2225 21.2L68.6225 23.62C68.4625 23.7 68.2492 23.78 67.9825 23.86C67.7158 23.94 67.4158 24.0067 67.0825 24.06C66.7625 24.1267 66.4158 24.18 66.0425 24.22C65.6692 24.26 65.2958 24.28 64.9225 24.28C63.9758 24.28 63.1492 24.14 62.4425 23.86C61.7492 23.58 61.1692 23.2 60.7025 22.72C60.2492 22.2267 59.9092 21.6467 59.6825 20.98C59.4692 20.3133 59.3625 19.5933 59.3625 18.82ZM66.3625 17.68C66.3492 17.4267 66.3025 17.18 66.2225 16.94C66.1558 16.7 66.0425 16.4867 65.8825 16.3C65.7358 16.1133 65.5425 15.96 65.3025 15.84C65.0758 15.72 64.7892 15.66 64.4425 15.66C64.1092 15.66 63.8225 15.72 63.5825 15.84C63.3425 15.9467 63.1425 16.0933 62.9825 16.28C62.8225 16.4667 62.6958 16.6867 62.6025 16.94C62.5225 17.18 62.4625 17.4267 62.4225 17.68H66.3625ZM76.5222 18.42C76.5222 17.46 76.3955 16.78 76.1422 16.38C75.9022 15.98 75.4822 15.78 74.8822 15.78C74.6955 15.78 74.5022 15.7933 74.3022 15.82C74.1022 15.8333 73.9089 15.8533 73.7222 15.88V24H70.7422V13.84C70.9955 13.7733 71.2889 13.7067 71.6222 13.64C71.9689 13.56 72.3289 13.4933 72.7022 13.44C73.0889 13.3733 73.4822 13.3267 73.8822 13.3C74.2822 13.26 74.6755 13.24 75.0622 13.24C75.8222 13.24 76.4355 13.34 76.9022 13.54C77.3822 13.7267 77.7755 13.9533 78.0822 14.22C78.5089 13.9133 78.9955 13.6733 79.5422 13.5C80.1022 13.3267 80.6155 13.24 81.0822 13.24C81.9222 13.24 82.6089 13.36 83.1422 13.6C83.6889 13.8267 84.1222 14.1533 84.4422 14.58C84.7622 15.0067 84.9822 15.5133 85.1022 16.1C85.2222 16.6867 85.2822 17.34 85.2822 18.06V24H82.3022V18.42C82.3022 17.46 82.1755 16.78 81.9222 16.38C81.6822 15.98 81.2622 15.78 80.6622 15.78C80.5022 15.78 80.2755 15.82 79.9822 15.9C79.7022 15.98 79.4689 16.08 79.2822 16.2C79.3755 16.5067 79.4355 16.8333 79.4622 17.18C79.4889 17.5133 79.5022 17.8733 79.5022 18.26V24H76.5222V18.42ZM86.6883 18.82C86.6883 17.8867 86.8283 17.0733 87.1083 16.38C87.4016 15.6733 87.7816 15.0867 88.2483 14.62C88.7149 14.1533 89.2483 13.8 89.8483 13.56C90.4616 13.32 91.0883 13.2 91.7283 13.2C93.2216 13.2 94.4016 13.66 95.2683 14.58C96.1349 15.4867 96.5683 16.8267 96.5683 18.6C96.5683 18.7733 96.5616 18.9667 96.5483 19.18C96.5349 19.38 96.5216 19.56 96.5083 19.72H89.7483C89.8149 20.3333 90.1016 20.82 90.6083 21.18C91.1149 21.54 91.7949 21.72 92.6483 21.72C93.1949 21.72 93.7283 21.6733 94.2483 21.58C94.7816 21.4733 95.2149 21.3467 95.5483 21.2L95.9483 23.62C95.7883 23.7 95.5749 23.78 95.3083 23.86C95.0416 23.94 94.7416 24.0067 94.4083 24.06C94.0883 24.1267 93.7416 24.18 93.3683 24.22C92.9949 24.26 92.6216 24.28 92.2483 24.28C91.3016 24.28 90.4749 24.14 89.7683 23.86C89.0749 23.58 88.4949 23.2 88.0283 22.72C87.5749 22.2267 87.2349 21.6467 87.0083 20.98C86.7949 20.3133 86.6883 19.5933 86.6883 18.82ZM93.6883 17.68C93.6749 17.4267 93.6283 17.18 93.5483 16.94C93.4816 16.7 93.3683 16.4867 93.2083 16.3C93.0616 16.1133 92.8683 15.96 92.6283 15.84C92.4016 15.72 92.1149 15.66 91.7683 15.66C91.4349 15.66 91.1483 15.72 90.9083 15.84C90.6683 15.9467 90.4683 16.0933 90.3083 16.28C90.1483 16.4667 90.0216 16.6867 89.9283 16.94C89.8483 17.18 89.7883 17.4267 89.7483 17.68H93.6883ZM107.548 24C107.401 23.52 107.235 23.0267 107.048 22.52C106.875 22.0133 106.701 21.5067 106.528 21H101.128C100.955 21.5067 100.775 22.0133 100.588 22.52C100.415 23.0267 100.255 23.52 100.108 24H96.868C97.388 22.5067 97.8813 21.1267 98.348 19.86C98.8146 18.5933 99.268 17.4 99.708 16.28C100.161 15.16 100.601 14.1 101.028 13.1C101.468 12.0867 101.921 11.1 102.388 10.14H105.368C105.821 11.1 106.268 12.0867 106.708 13.1C107.148 14.1 107.588 15.16 108.028 16.28C108.481 17.4 108.941 18.5933 109.408 19.86C109.875 21.1267 110.368 22.5067 110.888 24H107.548ZM103.808 13.28C103.741 13.48 103.641 13.7533 103.508 14.1C103.375 14.4467 103.221 14.8467 103.048 15.3C102.875 15.7533 102.681 16.2533 102.468 16.8C102.268 17.3467 102.061 17.92 101.848 18.52H105.788C105.575 17.92 105.368 17.3467 105.168 16.8C104.968 16.2533 104.775 15.7533 104.588 15.3C104.415 14.8467 104.261 14.4467 104.128 14.1C103.995 13.7533 103.888 13.48 103.808 13.28ZM111.582 10.86L114.562 10.38V13.48H118.142V15.96H114.562V19.66C114.562 20.2867 114.669 20.7867 114.882 21.16C115.109 21.5333 115.555 21.72 116.222 21.72C116.542 21.72 116.869 21.6933 117.202 21.64C117.549 21.5733 117.862 21.4867 118.142 21.38L118.562 23.7C118.202 23.8467 117.802 23.9733 117.362 24.08C116.922 24.1867 116.382 24.24 115.742 24.24C114.929 24.24 114.255 24.1333 113.722 23.92C113.189 23.6933 112.762 23.3867 112.442 23C112.122 22.6 111.895 22.12 111.762 21.56C111.642 21 111.582 20.38 111.582 19.7V10.86ZM118.878 18.82C118.878 17.8867 119.018 17.0733 119.298 16.38C119.591 15.6733 119.971 15.0867 120.438 14.62C120.905 14.1533 121.438 13.8 122.038 13.56C122.651 13.32 123.278 13.2 123.918 13.2C125.411 13.2 126.591 13.66 127.458 14.58C128.325 15.4867 128.758 16.8267 128.758 18.6C128.758 18.7733 128.751 18.9667 128.738 19.18C128.725 19.38 128.711 19.56 128.698 19.72H121.938C122.005 20.3333 122.291 20.82 122.798 21.18C123.305 21.54 123.985 21.72 124.838 21.72C125.385 21.72 125.918 21.6733 126.438 21.58C126.971 21.4733 127.405 21.3467 127.738 21.2L128.138 23.62C127.978 23.7 127.765 23.78 127.498 23.86C127.231 23.94 126.931 24.0067 126.598 24.06C126.278 24.1267 125.931 24.18 125.558 24.22C125.185 24.26 124.811 24.28 124.438 24.28C123.491 24.28 122.665 24.14 121.958 23.86C121.265 23.58 120.685 23.2 120.218 22.72C119.765 22.2267 119.425 21.6467 119.198 20.98C118.985 20.3133 118.878 19.5933 118.878 18.82ZM125.878 17.68C125.865 17.4267 125.818 17.18 125.738 16.94C125.671 16.7 125.558 16.4867 125.398 16.3C125.251 16.1133 125.058 15.96 124.818 15.84C124.591 15.72 124.305 15.66 123.958 15.66C123.625 15.66 123.338 15.72 123.098 15.84C122.858 15.9467 122.658 16.0933 122.498 16.28C122.338 16.4667 122.211 16.6867 122.118 16.94C122.038 17.18 121.978 17.4267 121.938 17.68H125.878ZM134.458 24.2C133.591 24.1867 132.884 24.0933 132.338 23.92C131.804 23.7467 131.378 23.5067 131.058 23.2C130.751 22.88 130.538 22.5 130.418 22.06C130.311 21.6067 130.258 21.1 130.258 20.54V8.96L133.238 8.48V19.94C133.238 20.2067 133.258 20.4467 133.298 20.66C133.338 20.8733 133.411 21.0533 133.518 21.2C133.638 21.3467 133.804 21.4667 134.018 21.56C134.231 21.6533 134.518 21.7133 134.878 21.74L134.458 24.2ZM138.766 24H135.786V13.48H138.766V24ZM139.046 10.44C139.046 10.9867 138.866 11.42 138.506 11.74C138.159 12.0467 137.746 12.2 137.266 12.2C136.786 12.2 136.366 12.0467 136.006 11.74C135.659 11.42 135.486 10.9867 135.486 10.44C135.486 9.89333 135.659 9.46667 136.006 9.16C136.366 8.84 136.786 8.68 137.266 8.68C137.746 8.68 138.159 8.84 138.506 9.16C138.866 9.46667 139.046 9.89333 139.046 10.44ZM140.267 18.82C140.267 17.8867 140.407 17.0733 140.687 16.38C140.981 15.6733 141.361 15.0867 141.827 14.62C142.294 14.1533 142.827 13.8 143.427 13.56C144.041 13.32 144.667 13.2 145.307 13.2C146.801 13.2 147.981 13.66 148.847 14.58C149.714 15.4867 150.147 16.8267 150.147 18.6C150.147 18.7733 150.141 18.9667 150.127 19.18C150.114 19.38 150.101 19.56 150.087 19.72H143.327C143.394 20.3333 143.681 20.82 144.187 21.18C144.694 21.54 145.374 21.72 146.227 21.72C146.774 21.72 147.307 21.6733 147.827 21.58C148.361 21.4733 148.794 21.3467 149.127 21.2L149.527 23.62C149.367 23.7 149.154 23.78 148.887 23.86C148.621 23.94 148.321 24.0067 147.987 24.06C147.667 24.1267 147.321 24.18 146.947 24.22C146.574 24.26 146.201 24.28 145.827 24.28C144.881 24.28 144.054 24.14 143.347 23.86C142.654 23.58 142.074 23.2 141.607 22.72C141.154 22.2267 140.814 21.6467 140.587 20.98C140.374 20.3133 140.267 19.5933 140.267 18.82ZM147.267 17.68C147.254 17.4267 147.207 17.18 147.127 16.94C147.061 16.7 146.947 16.4867 146.787 16.3C146.641 16.1133 146.447 15.96 146.207 15.84C145.981 15.72 145.694 15.66 145.347 15.66C145.014 15.66 144.727 15.72 144.487 15.84C144.247 15.9467 144.047 16.0933 143.887 16.28C143.727 16.4667 143.601 16.6867 143.507 16.94C143.427 17.18 143.367 17.4267 143.327 17.68H147.267ZM157.987 16.12C157.72 16.0533 157.407 15.9867 157.047 15.92C156.687 15.84 156.3 15.8 155.887 15.8C155.7 15.8 155.474 15.82 155.207 15.86C154.954 15.8867 154.76 15.92 154.627 15.96V24H151.647V14.04C152.18 13.8533 152.807 13.68 153.527 13.52C154.26 13.3467 155.074 13.26 155.967 13.26C156.127 13.26 156.32 13.2733 156.547 13.3C156.774 13.3133 157 13.34 157.227 13.38C157.454 13.4067 157.68 13.4467 157.907 13.5C158.134 13.54 158.327 13.5933 158.487 13.66L157.987 16.12Z" fill="#0B2041"/>
<defs>
<clipPath id="clip0_1522_20">
<rect width="24" height="27" fill="white" transform="translate(5 3)"/>
</clipPath>
</defs>
</svg>
