<svg width="33" height="33" viewBox="0 0 33 33" fill="none" xmlns="http://www.w3.org/2000/svg">
<rect width="33" height="33" rx="3" fill="#030327"/>
<g clip-path="url(#clip0_1524_27)">
<path d="M18.4876 4.18272C18.5199 4.20995 18.5522 4.23719 18.5854 4.26525C19.0206 4.64717 19.2729 5.09599 19.5587 5.61021C19.5718 4.84304 19.5849 4.07586 19.5984 3.28544C21.3002 3.28544 23.002 3.28544 24.7554 3.28544C24.7554 7.20207 24.7554 11.1187 24.7554 15.154C23.0536 15.154 21.3518 15.154 19.5984 15.154C19.5996 14.6586 19.6009 14.1632 19.6022 13.6528C19.6023 13.3381 19.6022 13.0234 19.6017 12.7087C19.601 12.2097 19.6006 11.7107 19.6026 11.2118C19.604 10.8482 19.6042 10.4848 19.603 10.1213C19.6023 9.92903 19.6023 9.73685 19.6038 9.54462C19.6052 9.36312 19.6049 9.1817 19.6033 9.0002C19.603 8.93413 19.6033 8.86805 19.6043 8.80199C19.6151 8.03594 19.2417 7.47747 18.7653 6.91535C18.722 6.86314 18.722 6.86314 18.6778 6.80988C18.2662 6.34981 17.7235 6.13829 17.1389 6.01807C17.1389 11.2268 17.1389 16.4355 17.1389 21.8021C16.2749 21.8021 15.4109 21.8021 14.5207 21.8021C14.5076 16.7548 14.4945 11.7076 14.481 6.50749C14.0989 6.75538 14.0989 6.75538 13.762 7.0479C13.7385 7.07072 13.7151 7.09353 13.6909 7.11704C13.4854 7.32035 13.3048 7.53843 13.1323 7.77184C13.104 7.80844 13.0757 7.84503 13.0466 7.88273C12.2917 8.87914 11.8039 10.0448 11.4265 11.2386C11.407 11.2995 11.407 11.2995 11.3872 11.3616C11.0286 12.4999 10.8458 13.6843 10.6911 14.8671C10.6727 14.9909 10.6727 14.9909 10.6331 15.154C8.85271 15.154 7.07235 15.154 5.23804 15.154C5.23804 14.9232 5.24586 14.7377 5.28174 14.5148C5.28636 14.4858 5.29099 14.4568 5.29576 14.4269C5.31091 14.3327 5.32649 14.2387 5.34217 14.1446C5.34753 14.1121 5.35288 14.0796 5.3584 14.0461C5.93018 10.5868 7.17892 6.84576 9.99837 4.63136C10.046 4.59256 10.0935 4.55374 10.1411 4.5149C11.1719 3.68417 12.3906 3.20098 13.6876 3.04073C13.7176 3.03688 13.7475 3.03304 13.7784 3.02908C15.3352 2.84725 17.2514 3.10842 18.4876 4.18272Z" fill="#40B4DD"/>
<path d="M4.99994 17.8052C6.79339 17.8052 8.58685 17.8052 10.4347 17.8052C10.4608 18.3974 10.487 18.9896 10.514 19.5997C10.6637 21.3731 10.9722 23.1931 12.1404 24.5756C12.1602 24.6013 12.18 24.6271 12.2004 24.6536C12.7402 25.3501 13.6021 25.7792 14.4462 25.9113C15.6313 25.9899 16.6691 25.5959 17.5751 24.8203C17.6271 24.777 17.6271 24.777 17.6801 24.7328C18.8011 23.7545 19.385 22.183 19.5104 20.7115C19.5272 20.4507 19.5286 20.1894 19.5315 19.9281C19.5322 19.8735 19.533 19.8189 19.5337 19.7642C19.5364 19.5641 19.5388 19.364 19.5413 19.1638C19.547 18.7155 19.5527 18.2671 19.5586 17.8052C21.2604 17.8052 22.9623 17.8052 24.7156 17.8052C24.7305 19.7246 24.7305 19.7246 24.7346 20.3221C24.659 23.0737 24.659 23.0737 25.8005 25.456C26.2036 25.8332 26.7453 25.9495 27.2808 25.9333C27.8221 25.8851 28.353 25.7637 28.8809 25.636C29.1226 26.431 29.0431 27.3789 28.6826 28.1239C28.128 29.0767 27.2314 29.6335 26.1995 29.9019C25.0363 30.1867 23.8259 29.9815 22.8049 29.3542C21.4465 28.4664 20.8674 26.9908 20.5233 25.4359C20.5055 25.3531 20.4882 25.2703 20.471 25.1874C20.4449 25.2526 20.4449 25.2526 20.4183 25.3193C20.1207 26.0457 19.738 26.7072 19.2413 27.3082C19.2134 27.3421 19.1856 27.3759 19.157 27.4108C17.9461 28.8349 16.4457 29.7977 14.5886 29.9927C14.3316 30.0103 14.074 30.01 13.8165 30.0102C13.7856 30.0103 13.7547 30.0103 13.7228 30.0103C13.2264 30.0096 12.7465 29.984 12.2594 29.8777C12.227 29.8707 12.1945 29.8637 12.161 29.8565C11.0954 29.6195 10.0441 29.2039 9.16523 28.5318C9.13103 28.5059 9.13103 28.5059 9.09614 28.4796C8.60261 28.1039 8.12318 27.6785 7.73713 27.1858C7.70203 27.143 7.6669 27.1002 7.63176 27.0574C7.31087 26.6617 7.04063 26.2418 6.78506 25.7991C6.76671 25.7676 6.74836 25.736 6.72945 25.7035C5.68349 23.8848 5.22415 21.8469 5.03961 19.7629C5.03524 19.7145 5.03524 19.7145 5.03078 19.6652C4.97747 19.0471 4.99994 18.4245 4.99994 17.8052Z" fill="#F05354"/>
</g>
<defs>
<clipPath id="clip0_1524_27">
<rect width="24" height="27" fill="white" transform="translate(5 3)"/>
</clipPath>
</defs>
</svg>
