<svg xmlns="http://www.w3.org/2000/svg" width="45" height="44" fill="#4f4f4f" xmlns:v="https://vecta.io/nano"><path d="M22.28 44c12.131 0 22-9.901 22-22.072-1.106-29.241-42.898-29.233-44 0C.28 34.099 10.149 44 22.28 44zm0-40.375c10.059 0 18.243 8.211 18.243 18.303-.917 24.248-35.572 24.241-36.486 0 0-10.092 8.184-18.302 18.243-18.302zm-8.47 24.066c.951-.417 1.384-1.529.968-2.482-2.314-5.09 1.445-11.211 6.972-11.472l-.798.801a1.89 1.89 0 0 0 0 2.665c.733.736 1.923.736 2.657 0l4.024-4.038a1.89 1.89 0 0 0 0-2.665l-4.024-4.038c-.733-.736-1.923-.736-2.657 0a1.89 1.89 0 0 0 0 2.665l.829.831c-8.206.205-13.867 9.232-10.444 16.76.416.954 1.524 1.389 2.474.971zm16.652-5.763a8.21 8.21 0 0 1-7.652 8.19l.798-.801a1.89 1.89 0 0 0 0-2.665c-.733-.736-1.923-.736-2.657 0l-4.024 4.038a1.89 1.89 0 0 0 0 2.665l4.024 4.038c.733.736 1.923.736 2.657 0a1.89 1.89 0 0 0 0-2.665l-.829-.831c8.206-.205 13.867-9.233 10.444-16.76-.416-.954-1.524-1.388-2.474-.971s-1.384 1.528-.968 2.482a8.16 8.16 0 0 1 .681 3.282z"/></svg>