<svg width="51" height="40" viewBox="0 0 51 40" fill="none" xmlns="http://www.w3.org/2000/svg">
<path d="M20.3227 20.4414C20.8207 20.9297 21.628 20.9297 22.126 20.4414L23.0273 19.5578C23.5253 19.0695 23.5253 18.2781 23.0273 17.7898L20.1809 15L23.0265 12.2094C23.5245 11.7211 23.5245 10.9297 23.0265 10.4414L22.1252 9.55781C21.6272 9.06953 20.82 9.06953 20.3219 9.55781L15.6729 14.1156C15.1749 14.6039 15.1749 15.3953 15.6729 15.8836L20.3227 20.4414ZM27.9735 19.5586L28.8748 20.4422C29.3728 20.9305 30.18 20.9305 30.6781 20.4422L35.3271 15.8844C35.8251 15.3961 35.8251 14.6047 35.3271 14.1164L30.6781 9.55859C30.18 9.07031 29.3728 9.07031 28.8748 9.55859L27.9735 10.4422C27.4755 10.9305 27.4755 11.7219 27.9735 12.2102L30.8191 15L27.9735 17.7906C27.4755 18.2789 27.4755 19.0703 27.9735 19.5586ZM49.725 32.5H30.404C30.345 34.0477 29.2318 35 27.795 35H22.95C21.4606 35 20.3187 33.6352 20.3386 32.5H1.275C0.57375 32.5 0 33.0625 0 33.75V35C0 37.75 2.295 40 5.1 40H45.9C48.705 40 51 37.75 51 35V33.75C51 33.0625 50.4263 32.5 49.725 32.5ZM45.9 3.75C45.9 1.6875 44.1787 0 42.075 0H8.925C6.82125 0 5.1 1.6875 5.1 3.75V30H45.9V3.75ZM40.8 25H10.2V5H40.8V25Z" fill="#4F2CD2"/>
</svg>
