<svg width="46" height="46" viewBox="0 0 46 46" fill="none" xmlns="http://www.w3.org/2000/svg">
<path d="M23.003 0C22.9883 0 22.9729 0 22.9581 0.000547803C22.6713 0.00766924 15.8762 0.212182 11.0951 3.27787C10.2582 3.81472 10.0144 4.92822 10.5512 5.76526C11.088 6.6023 12.2014 6.84553 13.0383 6.30923C16.8567 3.86128 22.6678 3.61367 23.0313 3.60089C33.7145 3.61568 42.4006 12.3126 42.4006 23.0004C42.4006 33.697 33.699 42.3996 23.0036 42.3996C17.6837 42.3996 12.5403 40.2567 8.89321 36.5204C5.36265 32.9041 3.48499 28.118 3.60568 23.0577C3.71906 19.5023 5.54724 16.3318 8.05115 15.3476C9.83935 14.6446 11.8382 15.0976 13.9093 16.6499C11.5647 20.2616 11.9732 25.1525 15.1367 28.3168L18.0221 31.2025C18.36 31.5399 18.8176 31.7296 19.295 31.7296C19.7725 31.7296 20.23 31.5399 20.568 31.2025L21.756 30.0143L24.6413 32.8999C24.993 33.2513 25.4536 33.4271 25.9143 33.4271C26.375 33.4271 26.8356 33.2513 27.1873 32.8999C27.8902 32.1964 27.8902 31.0568 27.1873 30.3538L24.3019 27.4681L27.4701 24.2996L30.3554 27.1853C30.707 27.5366 31.1677 27.7124 31.6283 27.7124C32.089 27.7124 32.5496 27.5366 32.9013 27.1853C33.6042 26.4817 33.6042 25.3421 32.9013 24.6391L30.016 21.7534L31.204 20.5652C31.907 19.8617 31.907 18.7221 31.204 18.0191L28.3187 15.1329C26.5581 13.3726 24.2172 12.4026 21.7279 12.4026C19.8088 12.4026 17.9795 12.9809 16.4353 14.051C12.1864 10.6745 8.60583 11.2608 6.73365 11.9967C2.87097 13.5152 0.167502 17.9142 0.00646562 22.9577C-0.138686 29.0098 2.10249 34.7203 6.31609 39.0361C10.637 43.4618 16.719 46.0003 23.0025 46.0003C35.6835 46.0003 46 35.6826 46 23.0002C46 10.3179 35.684 0 23.003 0Z" fill="#007BC2"/>
</svg>
