<svg width="44" height="53" viewBox="0 0 44 53" fill="none" xmlns="http://www.w3.org/2000/svg">
<path d="M22.9624 4.47374V1.90662C22.9589 1.63385 22.8827 1.36681 22.7415 1.13243C22.6003 0.898062 22.399 0.704646 22.158 0.571695C21.917 0.438745 21.6448 0.370963 21.3689 0.375186C21.093 0.379409 20.823 0.455488 20.5863 0.595748L11.7451 5.89385C11.5176 6.03082 11.3295 6.22334 11.199 6.45292C11.0685 6.68249 11 6.9414 11 7.20473C11 7.46806 11.0685 7.72696 11.199 7.95653C11.3295 8.18611 11.5176 8.37863 11.7451 8.5156L20.5863 13.8137C20.823 13.954 21.093 14.03 21.3689 14.0343C21.6448 14.0385 21.917 13.9707 22.158 13.8378C22.399 13.7048 22.6003 13.5114 22.7415 13.277C22.8827 13.0426 22.9589 12.7756 22.9624 12.5028V9.55337C26.0803 9.7423 29.0842 10.7821 31.6401 12.5572C34.1961 14.3324 36.204 16.7733 37.4407 19.6087C38.6775 22.4441 39.0946 25.563 38.6457 28.6187C38.1968 31.6744 36.8995 34.5472 34.898 36.9178C34.7449 37.0954 34.6655 37.3236 34.6757 37.5567C34.686 37.7897 34.7851 38.0103 34.9532 38.1741L37.4398 40.4681C37.6244 40.6318 37.8664 40.7177 38.1142 40.7075C38.3619 40.6973 38.5959 40.5918 38.766 40.4135C41.4315 37.3015 43.1628 33.5144 43.764 29.4804C44.3652 25.4464 43.8123 21.3267 42.168 17.5871C40.5236 13.8476 37.8533 10.6375 34.4592 8.32008C31.0652 6.00263 27.0827 4.67028 22.9624 4.47374Z" fill="#821C6E"/>
<path d="M23.3871 39.15C23.1511 39.0099 22.8819 38.934 22.6068 38.9297C22.3317 38.9255 22.0603 38.9932 21.82 39.126C21.5798 39.2588 21.3791 39.4519 21.2383 39.686C21.0975 39.92 21.0215 40.1867 21.0181 40.4591V43.4046C17.9094 43.2159 14.9145 42.1775 12.3661 40.4048C9.81775 38.632 7.8158 36.1944 6.58274 33.3628C5.34968 30.5312 4.93381 27.4166 5.38137 24.365C5.82892 21.3135 7.12236 18.4446 9.11793 16.0771C9.27056 15.8998 9.34973 15.6719 9.33951 15.4391C9.32929 15.2064 9.23044 14.9861 9.06283 14.8226L6.58364 12.5317C6.39961 12.3682 6.15834 12.2824 5.91131 12.2926C5.66427 12.3028 5.43104 12.4081 5.2614 12.5862C2.58532 15.6966 0.845142 19.4884 0.239008 23.5299C-0.367126 27.5714 0.185142 31.7002 1.83293 35.4462C3.48072 39.1922 6.1578 42.4048 9.55937 44.7183C12.9609 47.0318 16.9503 48.3531 21.0732 48.5319V51.0955C21.0766 51.3679 21.1526 51.6346 21.2934 51.8687C21.4342 52.1027 21.6349 52.2959 21.8751 52.4286C22.1154 52.5614 22.3868 52.6291 22.6619 52.6249C22.937 52.6207 23.2062 52.5447 23.4422 52.4046L32.2571 47.1137C32.484 46.9769 32.6714 46.7846 32.8016 46.5554C32.9317 46.3261 33 46.0676 33 45.8046C33 45.5416 32.9317 45.2831 32.8016 45.0538C32.6714 44.8245 32.484 44.6323 32.2571 44.4955L23.3871 39.15Z" fill="#821C6E"/>
</svg>
