<svg width="22" height="22" viewBox="0 0 24 21" fill="none" xmlns="http://www.w3.org/2000/svg">
<path d="M10.9921 15.8185H12.0332C12.1287 15.816 12.2197 15.7757 12.2872 15.706C12.3548 15.6363 12.3939 15.5425 12.3963 15.444V14.4951L12.4932 14.4702C13.0279 14.3346 13.5106 14.0356 13.8778 13.6124C14.245 13.1891 14.4797 12.6613 14.5511 12.0981C14.5901 11.7189 14.5497 11.3354 14.4328 10.9736C14.3158 10.6118 14.125 10.28 13.8732 10.0008C13.6255 9.71776 13.3229 9.49151 12.9851 9.33668C12.6473 9.18184 12.2818 9.10185 11.9121 9.10189H11.1132C10.9898 9.10296 10.8676 9.07678 10.7548 9.02509C10.6421 8.97341 10.5414 8.89743 10.4595 8.80227C10.3782 8.70761 10.3169 8.5966 10.2794 8.47627C10.2419 8.35593 10.229 8.22888 10.2416 8.10314C10.276 7.87804 10.3879 7.67329 10.5569 7.5265C10.726 7.37972 10.9406 7.30076 11.1616 7.30414H12.0816C12.2068 7.30486 12.328 7.34988 12.425 7.43168C12.5219 7.51348 12.5887 7.6271 12.6142 7.75358C12.6316 7.83922 12.6774 7.91596 12.7436 7.97062C12.8099 8.02529 12.8925 8.05448 12.9774 8.0532H14.0184C14.069 8.0537 14.119 8.04278 14.165 8.02121C14.211 7.99965 14.2519 7.96795 14.2847 7.92836C14.3179 7.89161 14.3436 7.84836 14.3602 7.80117C14.3768 7.75399 14.3841 7.70384 14.3816 7.6537C14.3326 7.13258 14.1188 6.64252 13.7732 6.25901C13.4276 5.8755 12.9693 5.61982 12.4689 5.53135L12.3721 5.50639V4.58254C12.3697 4.484 12.3306 4.3902 12.263 4.3205C12.1954 4.25081 12.1045 4.21054 12.0089 4.20801H10.9679C10.8724 4.21054 10.7814 4.25081 10.7138 4.3205C10.6462 4.3902 10.6072 4.484 10.6047 4.58254V5.50639L10.5079 5.53135C9.88048 5.6796 9.32635 6.05717 8.94803 6.59424C8.5697 7.1313 8.39278 7.7915 8.45 8.4527C8.57105 9.82599 9.78158 10.8996 11.1858 10.8996H11.8637C11.9867 10.8993 12.1083 10.9256 12.2207 10.977C12.3331 11.0285 12.4338 11.1038 12.516 11.198C12.5983 11.2923 12.6603 11.4034 12.6981 11.5241C12.7359 11.6448 12.7485 11.7723 12.7353 11.8984C12.7009 12.1235 12.5889 12.3282 12.4199 12.475C12.2509 12.6218 12.0362 12.7008 11.8153 12.6974H10.8953C10.77 12.6967 10.6488 12.6516 10.5519 12.5699C10.4549 12.4881 10.3881 12.3744 10.3626 12.248C10.3452 12.1623 10.2995 12.0856 10.2332 12.0309C10.1669 11.9762 10.0843 11.9471 9.99947 11.9483H8.95842C8.85012 11.9523 8.7469 11.9967 8.66789 12.0732C8.63473 12.1099 8.60906 12.1532 8.59243 12.2004C8.57579 12.2475 8.56852 12.2977 8.57105 12.3478C8.62004 12.869 8.83381 13.359 9.17942 13.7425C9.52503 14.126 9.98332 14.3817 10.4837 14.4702L10.5805 14.4951V15.419C10.5884 15.5266 10.635 15.6272 10.7111 15.7011C10.7873 15.7751 10.8875 15.8169 10.9921 15.8185Z" fill="#50ABFF"/>
<path d="M5.39995 9.52651H4.09258C4.17633 8.11763 4.63723 6.7603 5.42407 5.60536C6.21091 4.45042 7.29286 3.54311 8.54969 2.98428C9.80651 2.42545 11.189 2.23697 12.5434 2.43981C13.8979 2.64264 15.1713 3.22884 16.2221 4.13325C16.3008 4.20243 16.4019 4.23831 16.5052 4.23368C16.6085 4.22904 16.7063 4.18424 16.7789 4.10828L17.7957 2.98469C17.8683 2.90129 17.9064 2.79194 17.9019 2.67998C17.8973 2.56802 17.8506 2.46232 17.7715 2.38544C16.3926 1.17366 14.7117 0.385097 12.9199 0.109364C11.128 -0.16637 9.29715 0.0817812 7.63525 0.825618C5.97335 1.56946 4.54709 2.77915 3.51855 4.31723C2.49 5.85531 1.90042 7.6601 1.81679 9.52651H0.678901C0.557993 9.52808 0.439625 9.56251 0.335738 9.62633C0.231851 9.69014 0.146118 9.78108 0.0871866 9.88997C0.0282555 9.99886 -0.00178944 10.1219 8.24113e-05 10.2465C0.00195426 10.3712 0.0356767 10.4932 0.0978481 10.6002L2.44627 14.5952C2.50698 14.698 2.59232 14.783 2.69408 14.8419C2.79584 14.9009 2.9106 14.9319 3.02732 14.9319C3.14404 14.9319 3.2588 14.9009 3.36056 14.8419C3.46232 14.783 3.54766 14.698 3.60837 14.5952L5.95679 10.6002C6.0254 10.4965 6.06514 10.3754 6.07169 10.2501C6.07824 10.1247 6.05135 9.99994 5.99394 9.88926C5.93654 9.77858 5.85082 9.68624 5.74609 9.62229C5.64137 9.55833 5.52165 9.52521 5.39995 9.52651Z" fill="#50ABFF"/>
<path d="M22.904 9.42643L20.5556 5.43142C20.4949 5.32861 20.4095 5.24363 20.3078 5.18466C20.206 5.1257 20.0912 5.09473 19.9745 5.09473C19.8578 5.09473 19.743 5.1257 19.6413 5.18466C19.5395 5.24363 19.4542 5.32861 19.3935 5.43142L17.0451 9.42643C16.9829 9.53339 16.9492 9.65536 16.9473 9.78005C16.9454 9.90474 16.9755 10.0277 17.0344 10.1366C17.0933 10.2455 17.1791 10.3365 17.2829 10.4003C17.3868 10.4641 17.5052 10.4985 17.6261 10.5001H18.9335C18.8497 11.909 18.3888 13.2663 17.602 14.4212C16.8151 15.5762 15.7332 16.4835 14.4764 17.0423C13.2195 17.6012 11.8371 17.7896 10.4826 17.5868C9.12818 17.384 7.8548 16.7978 6.80399 15.8933C6.7253 15.8242 6.62412 15.7883 6.52081 15.7929C6.41751 15.7976 6.31973 15.8424 6.24715 15.9183L5.2061 17.0419C5.13353 17.1253 5.09545 17.2347 5.09997 17.3466C5.10449 17.4586 5.15127 17.5643 5.23031 17.6412C6.61086 18.854 8.29388 19.6426 10.0877 19.9174C11.8816 20.1921 13.7142 19.9418 15.3769 19.195C17.0396 18.4482 18.4655 17.2349 19.4924 15.6933C20.5192 14.1517 21.1057 12.3436 21.1851 10.4751H22.3229C22.4426 10.4772 22.5606 10.446 22.6646 10.385C22.7686 10.3239 22.8548 10.2351 22.9142 10.128C22.9735 10.0208 23.0039 9.89918 23.0021 9.77577C23.0003 9.65236 22.9665 9.53171 22.904 9.42643Z" fill="#50ABFF"/>
</svg>
