<?xml version="1.0" encoding="UTF-8"?>
<svg width="21" height="21" version="1.1" viewBox="0 0 1200 1200" xmlns="http://www.w3.org/2000/svg">
 <g fill="#037986">
  <path d="m602.4 320.4c-97.199 0-176.4 79.199-176.4 176.4s79.199 176.4 176.4 176.4c97.199 0 176.4-79.199 176.4-176.4 0.003906-97.195-77.996-176.4-176.4-176.4z"/>
  <path d="m603.6 48c-307.2 0-555.6 248.4-555.6 554.4s248.4 554.4 554.4 554.4 554.4-248.4 554.4-554.4c1.2031-306-248.4-554.4-553.2-554.4zm354 812.4-18 25.199-14.398-27.602c-28.801-56.398-79.199-91.199-134.4-91.199l-376.8 0.003906c-55.199 0-105.6 33.602-134.4 91.199l-14.398 27.602-18-25.199c-55.199-75.602-84-165.6-84-258-0.003906-242.4 196.8-439.2 440.4-439.2 242.4 0 439.2 196.8 439.2 439.2 0 93.602-28.801 182.4-85.199 258z"/>
 </g>
</svg>
