<svg width="22" height="22" viewBox="0 0 25 26" fill="none" xmlns="http://www.w3.org/2000/svg">
<g clip-path="url(#clip0_457_3969)">
<path d="M23.9387 7.57487C23.8221 7.42739 23.6737 7.3081 23.5047 7.22585C23.3356 7.1436 23.1502 7.10051 22.9621 7.09979H20.4284C20.5881 7.56012 20.6283 8.05347 20.5452 8.53358C20.4621 9.0137 20.2585 9.46484 19.9533 9.8447L16.9181 13.8037C16.6438 14.1666 16.2887 14.4606 15.8809 14.6622C15.4732 14.8638 15.024 14.9675 14.5691 14.965C14.1147 14.9646 13.6665 14.8597 13.2591 14.6583C12.8518 14.4569 12.4963 14.1645 12.2201 13.8037L9.18486 9.8447C8.88555 9.46177 8.68555 9.0108 8.60266 8.5319C8.51978 8.053 8.55657 7.56103 8.70978 7.09979H6.46635L5.8857 4.7244C5.81812 4.45554 5.66113 4.21766 5.44051 4.04979C5.21989 3.88193 4.94875 3.79407 4.67161 3.80064H1.24049C0.912765 3.80474 0.599623 3.93675 0.367872 4.16851C0.13612 4.40026 0.00410836 4.7134 2.82005e-06 5.04112C-0.000345101 5.20412 0.0315035 5.36558 0.0937204 5.51624C0.155937 5.6669 0.247297 5.80379 0.362556 5.91905C0.477815 6.03431 0.614703 6.12567 0.765362 6.18789C0.916022 6.2501 1.07749 6.28195 1.24049 6.2816H3.69506L4.27571 8.6306C4.27571 8.657 4.3021 8.68339 4.3021 8.70978L6.75668 18.4753C6.82426 18.7442 6.98125 18.982 7.20187 19.1499C7.42249 19.3178 7.69363 19.4056 7.97077 19.3991H20.5867C20.8617 19.3966 21.1284 19.3053 21.3472 19.1388C21.566 18.9724 21.7251 18.7396 21.8008 18.4753L24.1762 8.657C24.2193 8.47029 24.2203 8.27636 24.1792 8.08921C24.1381 7.90207 24.056 7.72639 23.9387 7.57487Z" fill="#005BDF"/>
<path d="M9.68674 25.1C10.8966 25.1 11.8774 24.1193 11.8774 22.9094C11.8774 21.6995 10.8966 20.7188 9.68674 20.7188C8.47688 20.7188 7.49609 21.6995 7.49609 22.9094C7.49609 24.1193 8.47688 25.1 9.68674 25.1Z" fill="#005BDF"/>
<path d="M18.2903 25.1C19.5001 25.1 20.4809 24.1193 20.4809 22.9094C20.4809 21.6995 19.5001 20.7188 18.2903 20.7188C17.0804 20.7188 16.0996 21.6995 16.0996 22.9094C16.0996 24.1193 17.0804 25.1 18.2903 25.1Z" fill="#005BDF"/>
<path d="M13.8568 12.5368C13.9399 12.6472 14.0476 12.7368 14.1712 12.7984C14.2949 12.8601 14.4312 12.8922 14.5694 12.8922C14.7076 12.8922 14.8439 12.8601 14.9676 12.7984C15.0912 12.7368 15.1989 12.6472 15.282 12.5368L18.3436 8.57781C18.4438 8.44385 18.5051 8.28481 18.5206 8.11825C18.5361 7.95168 18.5053 7.78407 18.4316 7.6339C18.3579 7.48373 18.2441 7.35685 18.1028 7.26725C17.9616 7.17766 17.7983 7.12884 17.631 7.12618H16.0738V0.527865C16.0738 0.387867 16.0182 0.253602 15.9192 0.154608C15.8202 0.0556142 15.686 0 15.546 0H13.5665C13.4265 0 13.2922 0.0556142 13.1932 0.154608C13.0942 0.253602 13.0386 0.387867 13.0386 0.527865V7.12618H11.4814C11.3141 7.12884 11.1508 7.17766 11.0096 7.26725C10.8683 7.35685 10.7545 7.48373 10.6808 7.6339C10.6071 7.78407 10.5763 7.95168 10.5918 8.11825C10.6073 8.28481 10.6686 8.44385 10.7688 8.57781L13.8568 12.5368Z" fill="#005BDF"/>
</g>
<defs>
<clipPath id="clip0_457_3969">
<rect width="24.2053" height="25.1" fill="white"/>
</clipPath>
</defs>
</svg>
