<svg width="23" height="23" viewBox="0 0 26 26" fill="none" xmlns="http://www.w3.org/2000/svg">
<path d="M12.9999 4.44727C11.3084 4.44727 9.65479 4.94887 8.24831 5.88864C6.84184 6.82842 5.74563 8.16416 5.0983 9.72695C4.45097 11.2897 4.2816 13.0094 4.61161 14.6684C4.94161 16.3275 5.75617 17.8514 6.95228 19.0475C8.14838 20.2436 9.67232 21.0582 11.3314 21.3882C12.9904 21.7182 14.7101 21.5488 16.2729 20.9015C17.8356 20.2542 19.1714 19.158 20.1112 17.7515C21.0509 16.345 21.5525 14.6914 21.5525 12.9999C21.5525 10.7316 20.6515 8.5562 19.0475 6.95227C17.4436 5.34834 15.2682 4.44727 12.9999 4.44727ZM12.9999 12.1446C13.6016 12.1493 14.1825 12.3653 14.6411 12.7549C15.0997 13.1445 15.4068 13.6828 15.5087 14.2759C15.6106 14.8689 15.5008 15.4789 15.1986 15.9992C14.8963 16.5195 14.4208 16.917 13.8552 17.1223V18.1315H12.1446V17.1223C11.6455 16.9458 11.2133 16.6193 10.907 16.1875C10.6008 15.7557 10.4356 15.2398 10.4341 14.7104H12.1446C12.1446 14.8796 12.1948 15.0449 12.2888 15.1856C12.3828 15.3262 12.5163 15.4358 12.6726 15.5006C12.8289 15.5653 13.0009 15.5823 13.1668 15.5493C13.3327 15.5163 13.4851 15.4348 13.6047 15.3152C13.7243 15.1956 13.8057 15.0432 13.8387 14.8773C13.8717 14.7114 13.8548 14.5394 13.7901 14.3831C13.7253 14.2268 13.6157 14.0933 13.4751 13.9993C13.3344 13.9053 13.1691 13.8552 12.9999 13.8552C12.3982 13.8505 11.8173 13.6345 11.3587 13.2449C10.9001 12.8553 10.593 12.317 10.4911 11.7239C10.3892 11.1309 10.499 10.5209 10.8012 10.0006C11.1035 9.4803 11.579 9.08277 12.1446 8.87753V7.86832H13.8552V8.87753C14.3543 9.05398 14.7865 9.38048 15.0928 9.81227C15.399 10.2441 15.5642 10.76 15.5657 11.2894H13.8552C13.8552 11.1202 13.805 10.9549 13.711 10.8142C13.6171 10.6736 13.4835 10.5639 13.3272 10.4992C13.1709 10.4345 12.999 10.4175 12.833 10.4505C12.6671 10.4835 12.5147 10.565 12.3951 10.6846C12.2755 10.8042 12.1941 10.9566 12.1611 11.1225C12.1281 11.2884 12.145 11.4604 12.2097 11.6167C12.2745 11.7729 12.3841 11.9065 12.5247 12.0005C12.6654 12.0945 12.8307 12.1446 12.9999 12.1446Z" fill="#3464E0"/>
<path d="M10.9047 3.44671L13.0001 2.05263L15.0954 3.44671L16.0362 2.02697L13.0001 0L9.96387 2.02697L10.9047 3.44671Z" fill="#3464E0"/>
<path d="M2.02697 9.96387L0 13.0001L2.02697 16.0362L3.44671 15.0954L2.05263 13.0001L3.44671 10.9047L2.02697 9.96387Z" fill="#3464E0"/>
<path d="M13.0001 23.9473L10.9047 22.5532L9.96387 23.973L13.0001 25.9999L16.0362 23.973L15.0954 22.5532L13.0001 23.9473Z" fill="#3464E0"/>
<path d="M22.5537 10.9047L23.9478 13.0001L22.5537 15.0954L23.9734 16.0362L26.0004 13.0001L23.9734 9.96387L22.5537 10.9047Z" fill="#3464E0"/>
</svg>
