<svg width="20" height="20" viewBox="0 0 21 21" fill="none" xmlns="http://www.w3.org/2000/svg">
<path d="M10.5 1.96877C12.1781 1.96877 13.8184 2.46637 15.2137 3.39864C16.6089 4.33092 17.6964 5.656 18.3385 7.20631C18.9807 8.75663 19.1487 10.4626 18.8214 12.1084C18.494 13.7542 17.6859 15.2659 16.4994 16.4525C15.3128 17.6391 13.801 18.4471 12.1552 18.7745C10.5094 19.1019 8.80349 18.9338 7.25318 18.2917C5.70286 17.6495 4.37778 16.5621 3.4455 15.1668C2.51323 13.7716 2.01563 12.1312 2.01563 10.4531C2.01563 8.20295 2.90952 6.04491 4.50065 4.45378C6.09177 2.86265 8.24981 1.96877 10.5 1.96877ZM10.5 1.68026e-05C8.4233 1.68026e-05 6.39323 0.615831 4.66652 1.76959C2.9398 2.92334 1.59399 4.56322 0.79927 6.48184C0.00454947 8.40047 -0.203386 10.5117 0.201759 12.5485C0.606904 14.5853 1.60693 16.4562 3.07538 17.9246C4.54384 19.3931 6.41476 20.3931 8.45156 20.7983C10.4884 21.2034 12.5996 20.9955 14.5182 20.2008C16.4368 19.406 18.0767 18.0602 19.2304 16.3335C20.3842 14.6068 21 12.5767 21 10.5C21.0025 9.12044 20.7326 7.75395 20.2058 6.47892C19.679 5.20389 18.9056 4.04539 17.9301 3.06989C16.9546 2.09438 15.7961 1.32105 14.5211 0.794251C13.2461 0.267451 11.8796 -0.00245334 10.5 1.68026e-05Z" fill="#2BBE80"/>
<path d="M10.5 15C9.90847 15.0017 9.32242 14.8866 8.77544 14.6614C8.22847 14.4362 7.73132 14.1052 7.3125 13.6875L5.90625 15.0938C6.50635 15.7026 7.22151 16.1861 8.01013 16.5161C8.79875 16.8461 9.64511 17.0161 10.5 17.0161C11.3549 17.0161 12.2012 16.8461 12.9899 16.5161C13.7785 16.1861 14.4936 15.7026 15.0938 15.0938L13.6875 13.6875C12.8303 14.514 11.6906 14.9832 10.5 15Z" fill="#2BBE80"/>
<path d="M11.4844 8.57812V3.98438H9.51562V8.57812H6.09375L10.5 12.9844L14.9062 8.57812H11.4844Z" fill="#2BBE80"/>
</svg>
