<svg width="21" height="21" viewBox="0 0 21 18" fill="none" xmlns="http://www.w3.org/2000/svg">
<path d="M20.893 9.05312C20.6697 7.44645 20.0772 5.91339 19.162 4.57423C18.2468 3.23506 17.0338 2.12622 15.6183 1.3347C14.2027 0.543188 12.623 0.0905264 11.0031 0.0122362C9.38321 -0.0660539 7.76723 0.232157 6.28194 0.883471C4.79665 1.53479 3.48244 2.52149 2.44244 3.76616C1.40244 5.01082 0.664932 6.4796 0.287782 8.05725C-0.0893691 9.6349 -0.095902 11.2785 0.268695 12.8591C0.633292 14.4397 1.3591 15.9143 2.38918 17.1672C2.60087 17.4282 2.86835 17.6385 3.17195 17.7825C3.47555 17.9266 3.80756 18.0008 4.14359 17.9996H16.8893C17.2093 18.0056 17.5268 17.9416 17.8195 17.8121C18.1121 17.6826 18.373 17.4906 18.5838 17.2497C19.5197 16.1206 20.2088 14.8079 20.6065 13.3961C21.0043 11.9844 21.1018 10.5049 20.893 9.05312ZM5.95048 13.1252C6.00473 13.2105 6.04116 13.306 6.05757 13.4058C6.07398 13.5056 6.07004 13.6077 6.04598 13.7059C6.02192 13.8041 5.97825 13.8965 5.91758 13.9774C5.85691 14.0583 5.78051 14.1261 5.69297 14.1767C5.60542 14.2273 5.50855 14.2597 5.40817 14.2719C5.30779 14.2841 5.20598 14.2759 5.10886 14.2477C5.01175 14.2195 4.92134 14.172 4.84307 14.1079C4.7648 14.0439 4.70029 13.9647 4.65342 13.8751C4.05675 12.8508 3.74362 11.686 3.74622 10.5005C3.74622 8.71045 4.45714 6.99376 5.72259 5.72803C6.98804 4.4623 8.70435 3.75122 10.494 3.75122C10.7489 3.75122 11.0113 3.75122 11.2437 3.78872C11.5443 3.82485 11.8423 3.87996 12.1359 3.9537C12.3348 3.99348 12.5097 4.11064 12.6221 4.2794C12.7346 4.44816 12.7755 4.65471 12.7357 4.8536C12.6959 5.05249 12.5788 5.22743 12.4101 5.33994C12.2414 5.45245 12.0349 5.49331 11.836 5.45353H11.791C11.5586 5.40104 11.3262 5.35604 11.0938 5.32605C10.8613 5.29605 10.6739 5.32605 10.464 5.32605C9.07205 5.32605 7.73714 5.87911 6.7529 6.86356C5.76867 7.84802 5.21573 9.18322 5.21573 10.5755C5.23247 11.4752 5.48589 12.3546 5.95048 13.1252ZM11.9935 10.5005C11.9933 10.7948 11.9065 11.0826 11.7439 11.328C11.5814 11.5734 11.3502 11.7655 11.0793 11.8804C10.8083 11.9953 10.5095 12.0279 10.2202 11.9742C9.93084 11.9204 9.6637 11.7827 9.45205 11.5782C9.2404 11.3736 9.09361 11.1113 9.02995 10.8239C8.96631 10.5365 8.98861 10.2367 9.0941 9.96194C9.19959 9.68714 9.38359 9.44946 9.62319 9.27852C9.86278 9.10758 10.1474 9.01093 10.4415 9.00063C10.5881 8.99915 10.7343 9.0168 10.8763 9.05312L13.7104 6.21844C13.7803 6.14852 13.8633 6.09306 13.9546 6.05522C14.046 6.01738 14.1438 5.9979 14.2427 5.9979C14.3416 5.9979 14.4395 6.01738 14.5308 6.05522C14.6221 6.09306 14.7051 6.14852 14.775 6.21844C14.8449 6.28837 14.9004 6.37137 14.9382 6.46273C14.9761 6.55409 14.9955 6.652 14.9955 6.75088C14.9955 6.84977 14.9761 6.94768 14.9382 7.03904C14.9004 7.13039 14.8449 7.2134 14.775 7.28332L11.941 10.118C11.9737 10.2429 11.9913 10.3713 11.9935 10.5005ZM16.3345 13.8751C16.2344 14.0453 16.0711 14.1692 15.8802 14.2197C15.6892 14.2703 15.4861 14.2434 15.3148 14.1451C15.1446 14.0449 15.0208 13.8816 14.9703 13.6906C14.9197 13.4996 14.9466 13.2965 15.0449 13.1252C15.6322 12.1045 15.8593 10.9159 15.6897 9.75055C15.676 9.6525 15.6818 9.55271 15.7069 9.45693C15.7319 9.36115 15.7757 9.27127 15.8356 9.19249C15.8956 9.11371 15.9705 9.04758 16.0561 8.99792C16.1418 8.94826 16.2364 8.91605 16.3345 8.90314C16.5302 8.87747 16.7281 8.92999 16.8853 9.04932C17.0425 9.16865 17.1463 9.34517 17.1742 9.54057C17.3959 11.0389 17.0996 12.568 16.3345 13.8751Z" fill="#3464E0"/>
</svg>
