<svg width="21" height="21" viewBox="0 0 24 24" fill="none" xmlns="http://www.w3.org/2000/svg">
<g clip-path="url(#clip0_469_3995)">
<path d="M8.06645 8.75977C7.81184 8.75977 7.56766 8.86091 7.38762 9.04094C7.20759 9.22098 7.10645 9.46516 7.10645 9.71977C7.10645 9.97437 7.20759 10.2186 7.38762 10.3986C7.56766 10.5786 7.81184 10.6798 8.06645 10.6798H16.44C16.6947 10.6798 16.9388 10.5786 17.1189 10.3986C17.2989 10.2186 17.4 9.97437 17.4 9.71977C17.4 9.46516 17.2989 9.22098 17.1189 9.04094C16.9388 8.86091 16.6947 8.75977 16.44 8.75977H8.06645Z" fill="#0CC8A6"/>
<path d="M7.10645 12.8399C7.10645 12.5853 7.20759 12.3411 7.38762 12.1611C7.56766 11.981 7.81184 11.8799 8.06645 11.8799H11.04C11.2947 11.8799 11.5388 11.981 11.7189 12.1611C11.8989 12.3411 12 12.5853 12 12.8399C12 13.0945 11.8989 13.3387 11.7189 13.5187C11.5388 13.6987 11.2947 13.7999 11.04 13.7999H8.06645C7.81184 13.7999 7.56766 13.6987 7.38762 13.5187C7.20759 13.3387 7.10645 13.0945 7.10645 12.8399Z" fill="#0CC8A6"/>
<path d="M8.06645 15.2402C7.81184 15.2402 7.56766 15.3414 7.38762 15.5214C7.20759 15.7014 7.10645 15.9456 7.10645 16.2002C7.10645 16.4548 7.20759 16.699 7.38762 16.8791C7.56766 17.0591 7.81184 17.1602 8.06645 17.1602H9.60005C9.85465 17.1602 10.0988 17.0591 10.2789 16.8791C10.4589 16.699 10.56 16.4548 10.56 16.2002C10.56 15.9456 10.4589 15.7014 10.2789 15.5214C10.0988 15.3414 9.85465 15.2402 9.60005 15.2402H8.06645Z" fill="#0CC8A6"/>
<path d="M7.10645 19.5601C7.10645 19.3055 7.20759 19.0613 7.38762 18.8813C7.56766 18.7012 7.81184 18.6001 8.06645 18.6001H9.60005C9.85465 18.6001 10.0988 18.7012 10.2789 18.8813C10.4589 19.0613 10.56 19.3055 10.56 19.5601C10.56 19.8147 10.4589 20.0589 10.2789 20.2389C10.0988 20.419 9.85465 20.5201 9.60005 20.5201H8.06645C7.81184 20.5201 7.56766 20.419 7.38762 20.2389C7.20759 20.0589 7.10645 19.8147 7.10645 19.5601Z" fill="#0CC8A6"/>
<path fill-rule="evenodd" clip-rule="evenodd" d="M13.92 24C14.5878 24.001 15.2523 23.9057 15.8928 23.7168C17.3603 24.1807 18.9474 24.0858 20.3493 23.4505C21.7511 22.8152 22.8686 21.6843 23.4872 20.275C24.1058 18.8658 24.1818 17.2776 23.7006 15.8157C23.2193 14.3539 22.2148 13.1214 20.88 12.3552V7.44H21.84C22.4129 7.44 22.9623 7.21243 23.3674 6.80735C23.7724 6.40227 24 5.85287 24 5.28V4.56C24 3.35061 23.5196 2.19076 22.6644 1.33559C21.8092 0.480427 20.6494 0 19.44 0H8.16C6.95061 0 5.79076 0.480427 4.93559 1.33559C4.08043 2.19076 3.6 3.35061 3.6 4.56V16.56H1.0632C0.781222 16.56 0.510793 16.672 0.311404 16.8714C0.112015 17.0708 0 17.3412 0 17.6232V19.2696C0.0139271 20.5319 0.526317 21.7376 1.42547 22.6237C2.32461 23.5098 3.53761 24.0045 4.8 24H13.92ZM22.08 5.28C22.08 5.34365 22.0547 5.4047 22.0097 5.44971C21.9647 5.49472 21.9037 5.52 21.84 5.52H11.04V4.68C11.0281 3.7023 10.7456 2.747 10.224 1.92H19.44C20.1402 1.92 20.8117 2.19814 21.3068 2.69324C21.8019 3.18833 22.08 3.85983 22.08 4.56V5.28ZM5.52 4.56V22.08H13.2576C12.4108 21.1974 11.8421 20.0854 11.6221 18.8822C11.4022 17.6791 11.5407 16.4378 12.0204 15.3127C12.5001 14.1875 13.2999 13.2282 14.3203 12.5539C15.3408 11.8796 16.5369 11.5201 17.76 11.52C18.1627 11.5204 18.5645 11.559 18.96 11.6352V7.44H10.08C9.82539 7.44 9.58121 7.33886 9.40118 7.15882C9.22115 6.97879 9.12 6.73461 9.12 6.48V4.56C9.12 1.32 5.52 1.3416 5.52 4.56ZM3.6 18.48H1.92V19.2696C1.92051 19.8148 2.07961 20.3481 2.37791 20.8045C2.67621 21.2609 3.10082 21.6207 3.6 21.84V18.48ZM17.76 22.08C18.6144 22.08 19.4496 21.8266 20.1601 21.352C20.8705 20.8773 21.4242 20.2026 21.7512 19.4132C22.0781 18.6238 22.1637 17.7552 21.997 16.9172C21.8303 16.0792 21.4189 15.3095 20.8147 14.7053C20.2105 14.1011 19.4408 13.6897 18.6028 13.523C17.7648 13.3563 16.8962 13.4419 16.1068 13.7688C15.3174 14.0958 14.6427 14.6495 14.1681 15.3599C13.6934 16.0704 13.44 16.9056 13.44 17.76C13.44 18.9057 13.8951 20.0045 14.7053 20.8147C15.5155 21.6249 16.6143 22.08 17.76 22.08Z" fill="#0CC8A6"/>
<path d="M20.4146 14.909C20.4017 14.8974 20.3864 14.8888 20.3698 14.8839C20.3532 14.8789 20.3357 14.8776 20.3186 14.8802L19.3898 15.0482C19.3655 15.0525 19.3432 15.0643 19.3259 15.0819C19.3087 15.0996 19.2975 15.1222 19.2938 15.1466L19.2002 15.8258L18.593 15.8618C18.5641 15.863 18.5367 15.875 18.5162 15.8954C18.4958 15.9159 18.4838 15.9433 18.4826 15.9722L18.4466 16.5722L17.8442 16.6082C17.8163 16.6107 17.7901 16.6226 17.7698 16.6418L16.7738 17.6378C16.5566 17.5754 16.3286 17.56 16.1049 17.5925C15.8813 17.6251 15.6672 17.705 15.4768 17.8268C15.2864 17.9486 15.1242 18.1095 15.0009 18.2989C14.8776 18.4883 14.796 18.7018 14.7617 18.9252C14.7273 19.1485 14.7409 19.3767 14.8016 19.5944C14.8623 19.8121 14.9686 20.0143 15.1136 20.1877C15.2585 20.3611 15.4388 20.5016 15.6423 20.5999C15.8458 20.6982 16.0679 20.752 16.2938 20.7578C16.5029 20.7584 16.71 20.7176 16.9032 20.6377C17.0964 20.5578 17.2719 20.4404 17.4194 20.2922C17.6234 20.0862 17.7677 19.8288 17.837 19.5474C17.9063 19.2659 17.898 18.9709 17.813 18.6938L20.3738 16.1282C20.3842 16.1183 20.3926 16.1064 20.3984 16.0932C20.4041 16.08 20.4072 16.0658 20.4074 16.0514L20.4554 15.0026C20.4563 14.9849 20.453 14.9673 20.4459 14.951C20.4389 14.9348 20.4281 14.9204 20.4146 14.909ZM16.4786 19.8626C16.3608 19.9794 16.2017 20.045 16.0358 20.045C15.8699 20.045 15.7108 19.9794 15.593 19.8626C15.4752 19.7452 15.409 19.5858 15.4087 19.4194C15.4085 19.2531 15.4744 19.0936 15.5918 18.9758C15.7092 18.858 15.8686 18.7918 16.035 18.7915C16.2013 18.7913 16.3608 18.8572 16.4786 18.9746C16.5374 19.0326 16.584 19.1018 16.6159 19.178C16.6478 19.2542 16.6642 19.336 16.6642 19.4186C16.6642 19.5012 16.6478 19.583 16.6159 19.6592C16.584 19.7354 16.5374 19.8046 16.4786 19.8626Z" fill="#0CC8A6"/>
</g>
<defs>
<clipPath id="clip0_469_3995">
<rect width="24" height="24" fill="white"/>
</clipPath>
</defs>
</svg>
